<?xml version="1.0" encoding="UTF-8"?>
<svg version="1.1" xmlns="http://www.w3.org/2000/svg" width="560" height="599">
<path d="M0 0 C184.14 0 368.28 0 558 0 C558 196.68 558 393.36 558 596 C373.86 596 189.72 596 0 596 C0 399.32 0 202.64 0 0 Z " fill="#FDFDFD" transform="translate(2,3)"/>
<path d="M0 0 C1.26962325 3.80886975 0.41254124 6.49095234 -0.50024414 10.26708984 C-0.67299866 11.00973335 -0.84575317 11.75237686 -1.02374268 12.51752472 C-1.60331428 15.00050255 -2.19427914 17.48062785 -2.78515625 19.9609375 C-3.19705988 21.71614639 -3.60821321 23.47153151 -4.0186615 25.2270813 C-4.8977766 28.9806827 -5.78178605 32.73308417 -6.66967773 36.48461914 C-8.07358594 42.41691511 -9.4666218 48.3517284 -10.85742188 54.28710938 C-11.32471401 56.28082827 -11.79202968 58.27454165 -12.2593689 60.26824951 C-12.49036663 61.25370506 -12.72136436 62.23916061 -12.95936203 63.25447845 C-13.66157566 66.24823889 -14.36487155 69.24174307 -15.06851196 72.23516846 C-18.49587369 86.81872936 -21.87169619 101.41313323 -25.2052002 116.01846313 C-30.89435895 140.93922411 -36.65379723 165.84372395 -42.43334961 190.74365234 C-43.34985641 194.69244458 -44.26517254 198.64150979 -45.17944336 202.59082031 C-46.25519625 207.23727459 -47.33345147 211.88314101 -48.41367149 216.52855873 C-48.81543382 218.25810164 -49.21633363 219.98784514 -49.61634254 221.71779442 C-50.16609975 224.0945648 -50.71898897 226.47058486 -51.27270508 228.84643555 C-51.51489525 229.89837475 -51.51489525 229.89837475 -51.76197815 230.97156525 C-52.88584315 235.77168629 -52.88584315 235.77168629 -54 238 C-78.42 238 -102.84 238 -128 238 C-118.7897053 219.5794106 -118.7897053 219.5794106 -115.703125 213.7734375 C-115.34759048 213.10129211 -114.99205597 212.42914673 -114.62574768 211.7366333 C-113.50255644 209.61499027 -112.37648622 207.49489512 -111.25 205.375 C-110.85815521 204.63610535 -110.46631042 203.89721069 -110.06259155 203.13592529 C-104.90476117 193.40992502 -99.70038581 183.71154017 -94.4050293 174.05957031 C-90.40977165 166.77349467 -86.48007712 159.45303093 -82.5625 152.125 C-77.87719836 143.36243789 -73.17567695 134.60913374 -68.4375 125.875 C-60.31857894 110.90740619 -52.23452794 95.92100878 -44.203125 80.90625 C-43.88729965 80.3158493 -43.5714743 79.72544861 -43.24607849 79.11715698 C-42.93018265 78.5266153 -42.6142868 77.93607361 -42.28881836 77.32763672 C-41.65088443 76.13508819 -41.01294498 74.94254262 -40.375 73.75 C-40.05886749 73.15898499 -39.74273499 72.56796997 -39.41702271 71.95904541 C-34.86994972 63.46075991 -30.27768791 54.98880339 -25.64379883 46.53759766 C-22.6846553 41.12730105 -19.76643608 35.69667866 -16.875 30.25 C-16.51820663 29.57838837 -16.16141327 28.90677673 -15.79380798 28.21481323 C-14.03105106 24.89551685 -12.27179465 21.57443474 -10.51782227 18.25048828 C-7.2195141 12.01980165 -3.84525749 5.91236123 0 0 Z " fill="#FCFCFC" transform="translate(306,272)"/>
<path d="M0 0 C0.99 0 1.98 0 3 0 C2.42339429 5.94274045 1.54662983 11.62069487 0.16845703 17.42529297 C-0.01614169 18.22159339 -0.20074041 19.01789381 -0.39093304 19.83832455 C-1.00318948 22.47409618 -1.62271518 25.1081033 -2.2421875 27.7421875 C-2.68261279 29.63251045 -3.12253668 31.52295028 -3.56199646 33.41349792 C-4.50279053 37.45677007 -5.44664564 41.49931008 -6.39297485 45.54129028 C-8.6528236 55.19435879 -10.89740148 64.85098398 -13.14377022 74.50719643 C-13.91408384 77.81766026 -14.68502945 81.12797648 -15.45603943 84.4382782 C-18.78992834 98.7582814 -22.09519796 113.08458981 -25.37109375 127.41796875 C-25.58271904 128.34380013 -25.79434433 129.2696315 -26.01238251 130.22351837 C-27.82941318 138.17465355 -29.64384413 146.12638045 -31.45526123 154.07879639 C-32.548264 158.8770553 -33.64247836 163.67503601 -34.73828125 168.47265625 C-34.91150154 169.2310656 -35.08472183 169.98947495 -35.26319122 170.77086639 C-39.40171677 188.87245623 -43.69258741 206.93797218 -48 225 C-45.02758429 222.19004696 -43.27554596 219.08283365 -41.41015625 215.48046875 C-40.89953644 214.51124733 -40.89953644 214.51124733 -40.37860107 213.52244568 C-39.64842711 212.13521242 -38.92071147 210.74668295 -38.19522095 209.35699463 C-36.28163616 205.69191548 -34.35020425 202.03624231 -32.421875 198.37890625 C-32.03912918 197.65165344 -31.65638336 196.92440063 -31.26203918 196.17510986 C-28.16535061 190.29569345 -25.0094713 184.450531 -21.8125 178.625 C-12.59854969 161.80930475 -3.55133427 144.90363021 5.5 128 C14.59528507 111.01429038 23.69181583 94.02944568 32.9375 77.125 C39.70739594 64.74408031 46.35659427 52.2987204 53.00872803 39.85430908 C55.72041268 34.78173403 58.43339392 29.70985399 61.14779663 24.63873291 C62.09563095 22.86738593 63.04258064 21.09556569 63.98950195 19.32373047 C67.27423069 13.18600871 70.59313256 7.07086207 74 1 C74.99 1 75.98 1 77 1 C76.40901748 4.77799158 75.32400472 7.62325437 73.48046875 10.96484375 C72.69869263 12.39401123 72.69869263 12.39401123 71.90112305 13.85205078 C71.05287964 15.37934814 71.05287964 15.37934814 70.1875 16.9375 C69.60073486 18.00726074 69.01396973 19.07702148 68.40942383 20.17919922 C66.6115976 23.45575384 64.80586581 26.72787148 63 30 C61.05793981 33.53918176 59.12170069 37.08151771 57.1875 40.625 C56.71554199 41.48899414 56.24358398 42.35298828 55.75732422 43.24316406 C51.60605741 50.85723488 47.49739615 58.49394306 43.40737915 66.14105225 C42.68124391 67.49827769 41.9543434 68.85509399 41.22665405 70.21148682 C40.20729572 72.1123754 39.19109288 74.01491632 38.17578125 75.91796875 C37.29273315 77.56962036 37.29273315 77.56962036 36.3918457 79.25463867 C34.92390232 81.98340595 34.92390232 81.98340595 34 85 C34.54305283 85.17002029 35.08610565 85.34004059 35.64561462 85.51521301 C41.33544872 87.34713876 46.75191835 89.54154687 52.19140625 92.01171875 C53.02212143 92.38480667 53.85283661 92.75789459 54.70872498 93.14228821 C57.328495 94.31997704 59.94552149 95.50362302 62.5625 96.6875 C64.35203458 97.49323612 66.14174658 98.29857835 67.93164062 99.10351562 C72.28982268 101.06446695 76.64555689 103.03076086 81 105 C83.31 101.37 85.62 97.74 88 94 C91.52771899 95.17590633 91.71219328 95.7490785 93.41015625 98.89453125 C93.84263672 99.68537109 94.27511719 100.47621094 94.72070312 101.29101562 C95.16349609 102.12310547 95.60628906 102.95519531 96.0625 103.8125 C96.50916016 104.63298828 96.95582031 105.45347656 97.41601562 106.29882812 C99.33747731 109.84017679 101.19783208 113.39566415 103 117 C94.09 117 85.18 117 76 117 C78.25 110.25 78.25 110.25 80 107 C78.78054688 106.62617187 77.56109375 106.25234375 76.3046875 105.8671875 C70.02429992 103.77208754 64.10847429 100.9403457 58.125 98.125 C55.89856995 97.08565373 53.67200867 96.04658851 51.4453125 95.0078125 C50.3718457 94.50668945 49.29837891 94.00556641 48.19238281 93.48925781 C47.13889648 92.99780273 46.08541016 92.50634766 45 92 C43.94393555 91.5059668 42.88787109 91.01193359 41.79980469 90.50292969 C40.81141602 90.04563477 39.82302734 89.58833984 38.8046875 89.1171875 C37.92538574 88.70839355 37.04608398 88.29959961 36.14013672 87.87841797 C34.07719745 86.87343026 34.07719745 86.87343026 32 87 C31.6690332 87.64211426 31.33806641 88.28422852 30.99707031 88.94580078 C24.17448403 102.16602906 17.2465142 115.31302567 10.08984375 128.35546875 C6.73593581 134.469644 3.42797514 140.60819478 0.125 146.75 C-0.46015381 147.83788818 -1.04530762 148.92577637 -1.64819336 150.04663086 C-2.83821608 152.25951538 -4.02807547 154.47248774 -5.21777344 156.68554688 C-8.14266899 162.12505126 -11.07148604 167.5624431 -14 173 C-17.51273987 179.52288848 -21.02499177 186.0460377 -24.53515625 192.5703125 C-25.41022827 194.19634399 -25.41022827 194.19634399 -26.30297852 195.85522461 C-27.46922305 198.02249436 -28.63508053 200.18997244 -29.80053711 202.35766602 C-32.71531302 207.77481549 -35.64278843 213.184498 -38.59375 218.58203125 C-39.17632568 219.6498584 -39.75890137 220.71768555 -40.35913086 221.81787109 C-41.45302937 223.82128734 -42.54994161 225.82306263 -43.65063477 227.82275391 C-44.3978479 229.19246338 -44.3978479 229.19246338 -45.16015625 230.58984375 C-45.58949463 231.37222412 -46.01883301 232.15460449 -46.46118164 232.96069336 C-46.9689917 233.96366455 -47.47680176 234.96663574 -48 236 C-48.37269012 236.70307281 -48.74538025 237.40614563 -49.12936401 238.13052368 C-53.49894988 246.92385991 -55.42809477 256.13994703 -57.5625 265.65625 C-57.99038761 267.52302444 -58.41934126 269.38955481 -58.84927368 271.25585938 C-59.76695733 275.24953461 -60.67732228 279.24477938 -61.58184814 283.24145508 C-63.01222123 289.56142547 -64.45876478 295.87762607 -65.90771484 302.19335938 C-67.92604042 310.99730905 -69.9374919 319.80280145 -71.94433594 328.609375 C-76.1178571 346.91906322 -80.3331544 365.21911915 -84.55450821 383.5178299 C-85.92058834 389.44044103 -87.28317875 395.36383927 -88.64248085 401.28800964 C-89.49056986 404.98244258 -90.34075562 408.676391 -91.19138718 412.37023926 C-91.58104825 414.06436723 -91.96984595 415.75869409 -92.35765457 417.45324707 C-94.70236348 427.69590827 -97.21737501 437.86662389 -100 448 C-96.48812864 448.45780896 -93.48869495 448.79430108 -90 448 C-87.33438593 445.32917965 -85.64817393 442.37674659 -84 439 C-81.55653472 441.24675132 -79.9528106 443.54177401 -78.30078125 446.4140625 C-77.81416016 447.25710938 -77.32753906 448.10015625 -76.82617188 448.96875 C-76.32666016 449.8453125 -75.82714844 450.721875 -75.3125 451.625 C-74.80138672 452.50929688 -74.29027344 453.39359375 -73.76367188 454.3046875 C-70 460.85719501 -70 460.85719501 -70 462 C-78.91 462 -87.82 462 -97 462 C-95.47903372 458.19758429 -93.85989732 454.63525385 -92 451 C-94.97 450.67 -97.94 450.34 -101 450 C-101.185625 451.98 -101.185625 451.98 -101.375 454 C-101.86466253 458.47792832 -102.81566356 462.65743306 -104 467 C-102.68 467 -101.36 467 -100 467 C-100 469.31 -100 471.62 -100 474 C-101.65 474.33 -103.3 474.66 -105 475 C-107.61309167 482.34154326 -109.21864454 489.280793 -111 497 C-16.29 497 78.42 497 176 497 C176 497.33 176 497.66 176 498 C80.96 498 -14.08 498 -112 498 C-112.33 500.97 -112.66 503.94 -113 507 C-113.44948782 509.32744509 -113.94010034 511.64738458 -114.47460938 513.95678711 C-114.61945267 514.58887085 -114.76429596 515.22095459 -114.91352844 515.87219238 C-115.38530722 517.92509122 -115.86433258 519.97621661 -116.34375 522.02734375 C-116.67660274 523.46691901 -117.00907513 524.90658226 -117.34118652 526.34632874 C-118.03402336 529.34499329 -118.73025995 532.34283996 -119.42919922 535.34008789 C-120.32559103 539.18457411 -121.21513943 543.03060344 -122.10240936 546.87720394 C-122.78664057 549.84157249 -123.47353036 552.80531961 -124.16133118 555.76886177 C-124.49047548 557.18772765 -124.81900031 558.60673739 -125.14689636 560.02589226 C-125.60382013 562.0008504 -126.06451246 563.97493552 -126.52539062 565.94897461 C-126.7866272 567.07210556 -127.04786377 568.19523651 -127.3170166 569.35240173 C-128 572 -128 572 -129 574 C-129.99 574 -130.98 574 -132 574 C-131.37807253 567.24542802 -130.1848516 560.81794297 -128.63671875 554.21875 C-128.4034639 553.20639282 -128.17020905 552.19403564 -127.92988586 551.15100098 C-127.18718375 547.9328778 -126.43743919 544.71644346 -125.6875 541.5 C-125.19550394 539.37250207 -124.70396375 537.24489866 -124.21289062 535.1171875 C-123.0344679 530.01731613 -121.84788322 524.91939308 -120.65765381 519.82226562 C-120.03082915 517.1323007 -119.40857744 514.44131931 -118.78759766 511.75 C-118.42750422 510.19789454 -118.06732181 508.64580971 -117.70703125 507.09375 C-117.54651779 506.39390991 -117.38600433 505.69406982 -117.22062683 504.97302246 C-116.11365205 500.22730409 -116.11365205 500.22730409 -115 498 C-139.75 498.33 -164.5 498.66 -190 499 C-195.94 510.385 -195.94 510.385 -202 522 C-204.06887805 525.84351567 -206.14076251 529.67942148 -208.25 533.5 C-209.24014158 535.30438128 -210.22972218 537.1090705 -211.21875 538.9140625 C-211.68667969 539.76774414 -212.15460938 540.62142578 -212.63671875 541.50097656 C-215.80496071 547.30866366 -218.90381155 553.1536677 -222 559 C-222.99 559 -223.98 559 -225 559 C-224.40210976 555.10473414 -223.22267713 552.18625731 -221.33203125 548.73828125 C-220.49623535 547.20131592 -220.49623535 547.20131592 -219.64355469 545.63330078 C-219.03930664 544.53743652 -218.43505859 543.44157227 -217.8125 542.3125 C-216.86763388 540.57909658 -215.92277826 538.84568734 -214.97854614 537.11193848 C-213.99173582 535.3018953 -213.00214247 533.49339419 -212.01220703 531.68505859 C-208.72898472 525.68079729 -205.49220471 519.65147089 -202.25 513.625 C-201.65421143 512.52067627 -201.05842285 511.41635254 -200.44458008 510.27856445 C-199.8905249 509.25077881 -199.33646973 508.22299316 -198.765625 507.1640625 C-198.27868164 506.26123535 -197.79173828 505.3584082 -197.29003906 504.42822266 C-196.1607126 502.30250711 -195.0764799 500.15295979 -194 498 C-214.79 498 -235.58 498 -257 498 C-257 355.11 -257 212.22 -257 65 C-256.67 65 -256.34 65 -256 65 C-256 207.56 -256 350.12 -256 497 C-234.88 497 -213.76 497 -192 497 C-191.34 495.02 -190.68 493.04 -190 491 C-189.04881679 489.04587307 -188.05088753 487.11403919 -187.015625 485.203125 C-186.11831665 483.53805908 -186.11831665 483.53805908 -185.20288086 481.83935547 C-184.5519918 480.64286489 -183.90102958 479.44641412 -183.25 478.25 C-182.57319022 476.99780651 -181.89684676 475.74536086 -181.22094727 474.49267578 C-179.83020007 471.91666137 -178.43692712 469.34203902 -177.04150391 466.76855469 C-174.56831785 462.20605577 -172.11058572 457.63527976 -169.65283203 453.06445312 C-167.92788077 449.8571142 -166.2005818 446.65104991 -164.47265625 443.4453125 C-162.12390256 439.08722422 -159.77771141 434.72777111 -157.43359375 430.3671875 C-152.0267532 420.31184152 -146.60748648 410.26432803 -141.125 400.25 C-133.63324363 386.56279048 -126.32378795 372.77756137 -119 359 C-119.89944336 358.71552002 -120.79888672 358.43104004 -121.72558594 358.13793945 C-124.46318897 357.18655504 -126.84852582 356.15898181 -129.390625 354.79296875 C-130.17816162 354.37305664 -130.96569824 353.95314453 -131.77709961 353.52050781 C-133.0011853 352.86066895 -133.0011853 352.86066895 -134.25 352.1875 C-135.94387306 351.29010527 -137.63788219 350.39296733 -139.33203125 349.49609375 C-142.00860945 348.07090276 -144.67091715 346.62866982 -147.32421875 345.16015625 C-148.18660156 344.69480469 -149.04898438 344.22945313 -149.9375 343.75 C-150.64777344 343.35296875 -151.35804688 342.9559375 -152.08984375 342.546875 C-154.04527585 341.78456061 -154.04527585 341.78456061 -156.08984375 342.76171875 C-158.53285955 344.34543247 -160.74530098 346.16064028 -163 348 C-167.1731925 350.08659625 -172.67235787 349.68821057 -177.07421875 348.38671875 C-181.32379713 346.29419317 -183.49429564 343.4644798 -185.3359375 339.140625 C-186.70730598 334.71997837 -186.90127286 331.18538728 -185.1171875 326.859375 C-182.28222176 321.79023097 -179.35557674 319.21610072 -174 317 C-168.17943509 316.15337238 -163.72094142 317.64402643 -159 321 C-154.75016376 326.33953784 -153.75424815 330.2418241 -154 337 C-154.33 337.66 -154.66 338.32 -155 339 C-154.14027588 339.26353271 -153.28055176 339.52706543 -152.39477539 339.79858398 C-148.95219874 341.01691694 -145.90380455 342.50480558 -142.68359375 344.22265625 C-141.49548536 344.8496902 -140.30733301 345.47664085 -139.11914062 346.10351562 C-137.27274923 347.08463395 -135.42750187 348.06784067 -133.58325195 349.05297852 C-131.78618216 350.01079548 -129.98513623 350.96078566 -128.18359375 351.91015625 C-126.58342407 352.76299194 -126.58342407 352.76299194 -124.95092773 353.63305664 C-122.24036391 354.88865744 -119.94154274 355.57288677 -117 356 C-116.6690332 355.35788574 -116.33806641 354.71577148 -115.99707031 354.05419922 C-109.67612375 341.80600579 -103.2938194 329.6029049 -96.66088867 317.52050781 C-92.57937734 310.081228 -88.56229833 302.60841972 -84.5625 295.125 C-78.7441338 284.24220408 -72.8868247 273.3811021 -67 262.53515625 C-66.27490234 261.17825684 -66.27490234 261.17825684 -65.53515625 259.79394531 C-64.48244343 257.87803476 -63.38317786 255.98718903 -62.24609375 254.12011719 C-56.6196932 244.57164153 -54.36473492 234.86197925 -52 224.125 C-51.57223957 222.2499408 -51.14277357 220.37526994 -50.71166992 218.50097656 C-49.6477818 213.85631926 -48.6051275 209.20722724 -47.57025146 204.55603027 C-46.74111456 200.83960137 -45.89648125 197.12675097 -45.05078125 193.4140625 C-44.21965251 189.75978796 -43.39190356 186.10491675 -42.57369995 182.44772339 C-40.74723959 174.28571409 -38.87837569 166.13510323 -36.96875 157.9921875 C-36.35103482 155.35097731 -35.73354144 152.70971645 -35.11645508 150.06835938 C-34.95097074 149.36012213 -34.78548639 148.65188488 -34.61498737 147.9221859 C-30.92964287 132.14148541 -27.27905922 116.35266271 -23.62182617 100.56542969 C-22.67151648 96.46341705 -21.72065804 92.36153226 -20.76928711 88.25976562 C-19.35945384 82.18123507 -17.9508589 76.10241839 -16.54296875 70.0234375 C-16.31341366 69.03262932 -16.08385857 68.04182114 -15.84734726 67.02098846 C-13.24119912 55.7676188 -10.65557043 44.50992938 -8.10791016 33.24316406 C-7.87511132 32.21442232 -7.64231249 31.18568058 -7.40245914 30.12576485 C-6.28925005 25.20443183 -5.17919466 20.28242083 -4.07426453 15.35922241 C-3.68019758 13.61267485 -3.28606197 11.86614277 -2.8918457 10.11962891 C-2.71381975 9.32122211 -2.5357938 8.52281532 -2.35237312 7.70021439 C-1.11331952 2.22663904 -1.11331952 2.22663904 0 0 Z M-61 259 C-66.56025267 268.70407241 -71.91651951 278.51096241 -77.1875 288.375 C-77.50676453 288.97246033 -77.82602905 289.56992065 -78.15496826 290.18548584 C-79.46359133 292.6349472 -80.77188477 295.08458422 -82.07974243 297.53445435 C-85.43660018 303.82130488 -88.80924537 310.09962187 -92.1875 316.375 C-92.76806152 317.45362305 -93.34862305 318.53224609 -93.94677734 319.64355469 C-97.54345036 326.31802312 -101.16987997 332.97552659 -104.8125 339.625 C-110.16665487 349.40262657 -115.3921964 359.24659547 -120.6109314 369.09686279 C-125.52856147 378.37663322 -130.49339858 387.6270795 -135.54296875 396.8359375 C-139.57601279 404.19871544 -143.5431674 411.59609093 -147.5 419 C-151.96448003 427.35293441 -156.45209498 435.69211316 -161 444 C-165.30777053 451.87588973 -169.58563279 459.76753253 -173.83276367 467.67626953 C-174.77457814 469.42941035 -175.71830388 471.181524 -176.66210938 472.93359375 C-180.92894958 480.89155252 -184.95789876 488.91579753 -189 497 C-164.58 497 -140.16 497 -115 497 C-112.30618792 487.57165773 -109.81173571 478.25634696 -107.6796875 468.70703125 C-107.37718961 467.3663441 -107.07430231 466.02574476 -106.77105713 464.68522644 C-106.13234126 461.85874768 -105.49590357 459.03177058 -104.86138916 456.2043457 C-103.35031014 449.47200128 -101.8265157 442.74252812 -100.30418015 436.01272202 C-99.79822267 433.77549037 -99.29271413 431.53815763 -98.78726196 429.30081177 C-96.27612715 418.19041591 -93.72115362 407.09083202 -91.125 396 C-88.02811749 382.76083991 -84.96504238 369.51421003 -81.92578125 356.26171875 C-81.7441959 355.47009024 -81.56261055 354.67846172 -81.37552261 353.86284447 C-79.68820505 346.50679778 -78.00130524 339.15065567 -76.3170166 331.79391479 C-69.20238566 300.7204625 -69.20238566 300.7204625 -65.87109375 286.8984375 C-65.53751106 285.51133324 -65.53751106 285.51133324 -65.19718933 284.09620667 C-64.22605643 280.06522169 -63.2456339 276.03690964 -62.24780273 272.01245117 C-61.92283313 270.67631359 -61.5980306 269.34013535 -61.2734375 268.00390625 C-60.99935059 266.89861572 -60.72526367 265.7933252 -60.44287109 264.65454102 C-59.77142853 261.90565992 -59.77142853 261.90565992 -61 259 Z " fill="#B6B6B6" transform="translate(367,13)"/>
<path d="M0 0 C0.33 0 0.66 0 1 0 C1 142.56 1 285.12 1 432 C22.12 432 43.24 432 65 432 C65.66 430.02 66.32 428.04 67 426 C67.95118321 424.04587307 68.94911247 422.11403919 69.984375 420.203125 C70.88168335 418.53805908 70.88168335 418.53805908 71.79711914 416.83935547 C72.4480082 415.64286489 73.09897042 414.44641412 73.75 413.25 C74.42680978 411.99780651 75.10315324 410.74536086 75.77905273 409.49267578 C77.16979993 406.91666137 78.56307288 404.34203902 79.95849609 401.76855469 C82.43168215 397.20605577 84.88941428 392.63527976 87.34716797 388.06445312 C89.07211923 384.8571142 90.7994182 381.65104991 92.52734375 378.4453125 C94.87609744 374.08722422 97.22228859 369.72777111 99.56640625 365.3671875 C104.9732468 355.31184152 110.39251352 345.26432803 115.875 335.25 C123.36675637 321.56279048 130.67621205 307.77756137 138 294 C137.10055664 293.71552002 136.20111328 293.43104004 135.27441406 293.13793945 C132.53681103 292.18655504 130.15147418 291.15898181 127.609375 289.79296875 C126.82183838 289.37305664 126.03430176 288.95314453 125.22290039 288.52050781 C123.9988147 287.86066895 123.9988147 287.86066895 122.75 287.1875 C121.05612694 286.29010527 119.36211781 285.39296733 117.66796875 284.49609375 C114.99139055 283.07090276 112.32908285 281.62866982 109.67578125 280.16015625 C108.81339844 279.69480469 107.95101562 279.22945313 107.0625 278.75 C106.35222656 278.35296875 105.64195312 277.9559375 104.91015625 277.546875 C102.95472415 276.78456061 102.95472415 276.78456061 100.91015625 277.76171875 C98.46714045 279.34543247 96.25469902 281.16064028 94 283 C89.8268075 285.08659625 84.32764213 284.68821057 79.92578125 283.38671875 C75.67620287 281.29419317 73.50570436 278.4644798 71.6640625 274.140625 C70.29269402 269.71997837 70.09872714 266.18538728 71.8828125 261.859375 C74.71777824 256.79023097 77.64442326 254.21610072 83 252 C88.82056491 251.15337238 93.27905858 252.64402643 98 256 C102.24983624 261.33953784 103.24575185 265.2418241 103 272 C102.67 272.66 102.34 273.32 102 274 C102.85972412 274.26353271 103.71944824 274.52706543 104.60522461 274.79858398 C108.04780126 276.01691694 111.09619545 277.50480558 114.31640625 279.22265625 C115.50451464 279.8496902 116.69266699 280.47664085 117.88085938 281.10351562 C119.72725077 282.08463395 121.57249813 283.06784067 123.41674805 284.05297852 C125.21381784 285.01079548 127.01486377 285.96078566 128.81640625 286.91015625 C130.41657593 287.76299194 130.41657593 287.76299194 132.04907227 288.63305664 C134.75963609 289.88865744 137.05845726 290.57288677 140 291 C140.3309668 290.35788574 140.66193359 289.71577148 141.00292969 289.05419922 C147.32387625 276.80600579 153.7061806 264.6029049 160.33911133 252.52050781 C164.42062266 245.081228 168.43770167 237.60841972 172.4375 230.125 C178.79487341 218.23403352 185.20412739 206.37179441 191.63427734 194.52001953 C194.43455004 189.35298079 197.21911813 184.17749642 200 179 C201.50100246 182.90260639 200.55779609 185.20559165 199 189 C197.29016478 192.54407726 195.466273 196.02271925 193.625 199.5 C192.8220752 201.02741821 192.8220752 201.02741821 192.00292969 202.58569336 C188.00035113 210.17406177 183.91116747 217.71337966 179.78369141 225.234375 C175.45958913 233.1231843 171.22383037 241.05725034 167 249 C162.39933514 257.65007001 157.77513537 266.28521032 153.0625 274.875 C148.12672768 283.87392192 143.30465306 292.93068178 138.5 302 C133.21303104 311.97935169 127.88698118 321.93338418 122.45703125 331.8359375 C118.42398721 339.19871544 114.4568326 346.59609093 110.5 354 C106.03552154 362.35293148 101.54822907 370.69229221 97 379 C90.58133176 390.72538081 84.27872139 402.51223291 77.98120117 414.30297852 C74.99611708 419.87329625 71.99618961 425.43564787 69 431 C93.09 431.33 117.18 431.66 142 432 C142 432.33 142 432.66 142 433 C117.25 433.33 92.5 433.66 67 434 C63.04 441.59 59.08 449.18 55 457 C52.93112195 460.84351567 50.85923749 464.67942148 48.75 468.5 C47.75985842 470.30438128 46.77027782 472.1090705 45.78125 473.9140625 C45.31332031 474.76774414 44.84539062 475.62142578 44.36328125 476.50097656 C41.19503929 482.30866366 38.09618845 488.1536677 35 494 C34.01 494 33.02 494 32 494 C32.59789024 490.10473414 33.77732287 487.18625731 35.66796875 483.73828125 C36.50376465 482.20131592 36.50376465 482.20131592 37.35644531 480.63330078 C37.96069336 479.53743652 38.56494141 478.44157227 39.1875 477.3125 C40.13236612 475.57909658 41.07722174 473.84568734 42.02145386 472.11193848 C43.00826418 470.3018953 43.99785753 468.49339419 44.98779297 466.68505859 C48.27101528 460.68079729 51.50779529 454.65147089 54.75 448.625 C55.34578857 447.52067627 55.94157715 446.41635254 56.55541992 445.27856445 C57.1094751 444.25077881 57.66353027 443.22299316 58.234375 442.1640625 C58.72131836 441.26123535 59.20826172 440.3584082 59.70996094 439.42822266 C60.8392874 437.30250711 61.9235201 435.15295979 63 433 C42.21 433 21.42 433 0 433 C0 290.11 0 147.22 0 0 Z " fill="#232323" transform="translate(110,78)"/>
<path d="M0 0 C0.99 0 1.98 0 3 0 C2.40901748 3.77799158 1.32400472 6.62325437 -0.51953125 9.96484375 C-1.04071533 10.91762207 -1.56189941 11.87040039 -2.09887695 12.85205078 C-2.66437256 13.87024902 -3.22986816 14.88844727 -3.8125 15.9375 C-4.69264771 17.54214111 -4.69264771 17.54214111 -5.59057617 19.17919922 C-7.3884024 22.45575384 -9.19413419 25.72787148 -11 29 C-12.94206019 32.53918176 -14.87829931 36.08151771 -16.8125 39.625 C-17.52043701 40.92099121 -17.52043701 40.92099121 -18.24267578 42.24316406 C-22.39394259 49.85723488 -26.50260385 57.49394306 -30.59262085 65.14105225 C-31.31875609 66.49827769 -32.0456566 67.85509399 -32.77334595 69.21148682 C-33.79270428 71.1123754 -34.80890712 73.01491632 -35.82421875 74.91796875 C-36.70726685 76.56962036 -36.70726685 76.56962036 -37.6081543 78.25463867 C-39.07609768 80.98340595 -39.07609768 80.98340595 -40 84 C-39.18542076 84.25503044 -39.18542076 84.25503044 -38.35438538 84.51521301 C-32.66455128 86.34713876 -27.24808165 88.54154687 -21.80859375 91.01171875 C-20.97787857 91.38480667 -20.14716339 91.75789459 -19.29127502 92.14228821 C-16.671505 93.31997704 -14.05447851 94.50362302 -11.4375 95.6875 C-9.64796542 96.49323612 -7.85825342 97.29857835 -6.06835938 98.10351562 C-1.71017732 100.06446695 2.64555689 102.03076086 7 104 C9.31 100.37 11.62 96.74 14 93 C17.52771899 94.17590633 17.71219328 94.7490785 19.41015625 97.89453125 C19.84263672 98.68537109 20.27511719 99.47621094 20.72070312 100.29101562 C21.16349609 101.12310547 21.60628906 101.95519531 22.0625 102.8125 C22.50916016 103.63298828 22.95582031 104.45347656 23.41601562 105.29882812 C25.33747731 108.84017679 27.19783208 112.39566415 29 116 C20.09 116 11.18 116 2 116 C4.25 109.25 4.25 109.25 6 106 C4.17082031 105.43925781 4.17082031 105.43925781 2.3046875 104.8671875 C-3.97570008 102.77208754 -9.89152571 99.9403457 -15.875 97.125 C-18.10143005 96.08565373 -20.32799133 95.04658851 -22.5546875 94.0078125 C-23.6281543 93.50668945 -24.70162109 93.00556641 -25.80761719 92.48925781 C-26.86110352 91.99780273 -27.91458984 91.50634766 -29 91 C-30.05606445 90.5059668 -31.11212891 90.01193359 -32.20019531 89.50292969 C-33.18858398 89.04563477 -34.17697266 88.58833984 -35.1953125 88.1171875 C-36.07461426 87.70839355 -36.95391602 87.29959961 -37.85986328 86.87841797 C-39.92280255 85.87343026 -39.92280255 85.87343026 -42 86 C-42.3309668 86.64211426 -42.66193359 87.28422852 -43.00292969 87.94580078 C-49.82551597 101.16602906 -56.7534858 114.31302567 -63.91015625 127.35546875 C-67.26406419 133.469644 -70.57202486 139.60819478 -73.875 145.75 C-74.46015381 146.83788818 -75.04530762 147.92577637 -75.64819336 149.04663086 C-76.83821608 151.25951538 -78.02807547 153.47248774 -79.21777344 155.68554688 C-82.14266899 161.12505126 -85.07148604 166.5624431 -88 172 C-91.51273987 178.52288848 -95.02499177 185.0460377 -98.53515625 191.5703125 C-104.41031635 202.48920385 -110.29125111 213.40498019 -116.1875 224.3125 C-116.99876343 225.81611084 -116.99876343 225.81611084 -117.82641602 227.35009766 C-118.33100342 228.28257324 -118.83559082 229.21504883 -119.35546875 230.17578125 C-119.79528076 230.98958252 -120.23509277 231.80338379 -120.68823242 232.6418457 C-122.07369488 235.13248072 -123.4710684 237.59426367 -125 240 C-125.33 240 -125.66 240 -126 240 C-126.87828683 233.6324205 -123.81658708 229.36889824 -120.75 224.0625 C-119.63859012 222.08577815 -118.52927766 220.10787582 -117.421875 218.12890625 C-116.85146484 217.1145752 -116.28105469 216.10024414 -115.69335938 215.05517578 C-113.03193875 210.25341428 -110.51650973 205.37881134 -108 200.5 C-103.1626074 191.16658527 -98.17376177 181.92527631 -93.12109375 172.70703125 C-84.80617299 157.53025707 -76.66890674 142.25567111 -68.5 127 C-59.40471493 110.01429038 -50.30818417 93.02944568 -41.0625 76.125 C-34.29260406 63.74408031 -27.64340573 51.2987204 -20.99127197 38.85430908 C-18.27958732 33.78173403 -15.56660608 28.70985399 -12.85220337 23.63873291 C-11.90436905 21.86738593 -10.95741936 20.09556569 -10.01049805 18.32373047 C-6.72576931 12.18600871 -3.40686744 6.07086207 0 0 Z " fill="#161616" transform="translate(441,14)"/>
<path d="M0 0 C0.99 0 1.98 0 3 0 C2.42339429 5.94274045 1.54662983 11.62069487 0.16845703 17.42529297 C-0.01614169 18.22159339 -0.20074041 19.01789381 -0.39093304 19.83832455 C-1.00318948 22.47409618 -1.62271518 25.1081033 -2.2421875 27.7421875 C-2.68261279 29.63251045 -3.12253668 31.52295028 -3.56199646 33.41349792 C-4.50279053 37.45677007 -5.44664564 41.49931008 -6.39297485 45.54129028 C-8.6528236 55.19435879 -10.89740148 64.85098398 -13.14377022 74.50719643 C-13.91408384 77.81766026 -14.68502945 81.12797648 -15.45603943 84.4382782 C-18.78992834 98.7582814 -22.09519796 113.08458981 -25.37109375 127.41796875 C-25.58271904 128.34380013 -25.79434433 129.2696315 -26.01238251 130.22351837 C-27.82941318 138.17465355 -29.64384413 146.12638045 -31.45526123 154.07879639 C-32.548264 158.8770553 -33.64247836 163.67503601 -34.73828125 168.47265625 C-34.91150154 169.2310656 -35.08472183 169.98947495 -35.26319122 170.77086639 C-39.40171677 188.87245623 -43.69258741 206.93797218 -48 225 C-47.34 225.33 -46.68 225.66 -46 226 C-46.54140625 226.85271484 -46.54140625 226.85271484 -47.09375 227.72265625 C-50.18003523 232.85789195 -51.21690729 235.92659588 -51 242 C-51.69592005 244.06707603 -52.39521718 246.13307192 -53.11080933 248.19342041 C-54.74262736 253.34397736 -55.85277615 258.62922391 -57.03399849 263.89760971 C-57.51331456 266.03412434 -57.99867176 268.1691893 -58.48558044 270.3039856 C-59.86709041 276.36647367 -61.23689876 282.43159499 -62.60522461 288.49707031 C-63.44640058 292.22390148 -64.29360009 295.94932358 -65.14433098 299.67398453 C-65.62218992 301.77515544 -66.09283151 303.877862 -66.56336975 305.98068237 C-66.85384689 307.25275543 -67.14432404 308.52482849 -67.44360352 309.83544922 C-67.69658707 310.95635956 -67.94957062 312.0772699 -68.21022034 313.23214722 C-69 316 -69 316 -71 319 C-71.66 318.34 -72.32 317.68 -73 317 C-72.64935094 305.79789565 -68.51088411 293.97973873 -65.9375 283.125 C-65.24642532 280.200536 -64.55650024 277.2758124 -63.86878967 274.35055542 C-63.44352356 272.54254184 -63.0162536 270.73499801 -62.58665466 268.92800903 C-61.77399771 265.48016986 -61.01427546 262.09483031 -60.48657227 258.58935547 C-60 256 -60 256 -58 253 C-57.47633107 251.06554905 -57.47633107 251.06554905 -57.17578125 248.9140625 C-57.03809326 248.08140869 -56.90040527 247.24875488 -56.75854492 246.39086914 C-56.6113501 245.47813232 -56.46415527 244.56539551 -56.3125 243.625 C-54.7782859 234.6767838 -52.86066377 225.87651747 -50.6875 217.0625 C-47.91056009 205.79735806 -45.26830881 194.51098201 -42.7487793 183.18579102 C-40.58241848 173.48090137 -38.32631384 163.79785873 -36.06245422 154.11528015 C-31.89112175 136.27101149 -27.75750762 118.41798842 -23.62182617 100.56542969 C-22.67151648 96.46341705 -21.72065804 92.36153226 -20.76928711 88.25976562 C-19.35945384 82.18123507 -17.9508589 76.10241839 -16.54296875 70.0234375 C-16.31341366 69.03262932 -16.08385857 68.04182114 -15.84734726 67.02098846 C-13.24119912 55.7676188 -10.65557043 44.50992938 -8.10791016 33.24316406 C-7.87511132 32.21442232 -7.64231249 31.18568058 -7.40245914 30.12576485 C-6.28925005 25.20443183 -5.17919466 20.28242083 -4.07426453 15.35922241 C-3.68019758 13.61267485 -3.28606197 11.86614277 -2.8918457 10.11962891 C-2.71381975 9.32122211 -2.5357938 8.52281532 -2.35237312 7.70021439 C-1.11331952 2.22663904 -1.11331952 2.22663904 0 0 Z " fill="#B6B6B6" transform="translate(367,13)"/>
<path d="M0 0 C4.49148545 2.48167678 6.98912638 5.75936355 8.875 10.5 C10.00454029 15.27739993 9.08856541 18.62749913 6.625 22.8125 C3.87850485 26.76931505 1.48726346 28.96257885 -3.125 30.5 C-7.79194522 31.04225459 -11.20271048 30.9698456 -15.4375 28.8125 C-19.57173697 25.2551333 -22.71289927 22.04676857 -23.36328125 16.44921875 C-23.54501793 10.91103242 -22.87013006 7.85244845 -19.125 3.5 C-13.29367699 -1.76241345 -7.40097001 -3.17584157 0 0 Z " fill="#3568C9" transform="translate(161.125,409.5)"/>
<path d="M0 0 C4.47999795 2.23999898 8.77385016 5.39613267 11 10 C11.89601364 15.15792201 11.79200111 20.18754994 9.4375 24.9375 C6.09265169 29.14000173 3.15026699 31.39940953 -2.171875 32.4140625 C-7.43214792 32.75870107 -10.89673859 31.41878054 -15.2734375 28.58203125 C-18.31297874 25.79693125 -19.82300558 23.18474645 -20.43359375 19.09765625 C-20.4471542 8.5611838 -20.4471542 8.5611838 -16 4 C-10.83092848 0.14853495 -6.42604041 -1.15128329 0 0 Z " fill="#3567C9" transform="translate(236,192)"/>
<path d="M0 0 C4.50185477 2.56539518 7.2117107 4.99035419 8.75 10.0859375 C9.26217322 14.6369624 9.33920364 18.61292841 7.625 22.8984375 C3.40112106 27.82629626 -0.38943334 30.85146482 -7.0625 31.3984375 C-12.52406812 31.32828892 -15.60247402 28.55535257 -19.5625 25.0234375 C-22.91873065 21.16998749 -22.64534573 16.75860889 -22.59375 11.8828125 C-22.0654586 7.58444159 -20.38770684 4.99952243 -17.25 2.0859375 C-12.00019264 -1.61279041 -5.98214502 -2.43024641 0 0 Z " fill="#3667C7" transform="translate(251.25,149.9140625)"/>
<path d="M0 0 C4.66291128 4.0122725 7.38881049 7.26586703 8 13.5 C7.50622666 19.5240347 5.44824269 23.55175731 1.1875 27.8125 C-3.99934542 30.03543375 -8.75470898 30.05302985 -14.3125 29.3125 C-18.78999925 27.31361641 -21.3660202 24.71243524 -23.6171875 20.3046875 C-24.90758771 16.60747341 -25.01291008 13.15074726 -24.3125 9.3125 C-22.14470342 5.20917075 -19.11782613 0.20026143 -14.4609375 -1.2734375 C-9.21062916 -2.28531511 -4.82425814 -2.45764094 0 0 Z " fill="#3567C8" transform="translate(205.3125,107.6875)"/>
<path d="M0 0 C4.01985963 2.26340231 6.46531843 5.19797765 9 9 C9.74295102 15.14623118 9.66707053 20.81552098 6 26 C0.88469041 30.73166137 -3.41016585 31.46292937 -10.19921875 31.41796875 C-14.64712278 30.75419507 -17.26919562 28.47122656 -20 25 C-23.0658419 20.10504564 -22.83656295 14.56496222 -22 9 C-17.58347418 0.41805518 -9.03021873 -1.51149584 0 0 Z " fill="#3466C9" transform="translate(333,63)"/>
<path d="M0 0 C3.46236126 2.39067801 5.74528805 5.0530761 7.625 8.8125 C8.31616213 13.91767482 8.81351602 18.79326728 6.1328125 23.34765625 C0.63837306 29.62864408 0.63837306 29.62864408 -3.984375 30.05078125 C-14.51395907 30.2996147 -14.51395907 30.2996147 -19.375 25.8125 C-23.28952087 21.35804522 -23.78152669 17.14761158 -23.72265625 11.38671875 C-23.0231193 6.2070013 -19.96603987 3.22170674 -16.1875 -0.125 C-10.76505329 -2.17347987 -5.42453258 -1.90863183 0 0 Z " fill="#3567C9" transform="translate(161.375,323.1875)"/>
<path d="M0 0 C4.8581944 2.1412042 7.37754883 4.52135431 9.921875 9.3046875 C11.0796256 12.77793931 10.99054152 15.66536198 10.921875 19.3046875 C7.921875 20.3046875 7.921875 20.3046875 4.921875 20.3046875 C6.571875 20.9646875 8.221875 21.6246875 9.921875 22.3046875 C9.0138588 23.43668103 8.09503674 24.56001113 7.171875 25.6796875 C6.66140625 26.30617188 6.1509375 26.93265625 5.625 27.578125 C2.45099058 30.79581345 -0.43148197 31.60946478 -4.890625 31.6796875 C-9.81765459 31.54907405 -13.43749369 30.74252503 -17.078125 27.3046875 C-20.2124703 23.10075849 -21.83418785 18.58235178 -21.5234375 13.3203125 C-20.34579826 7.98994542 -17.27875371 3.73804767 -12.703125 0.8046875 C-8.07154713 -1.11182748 -4.81791144 -1.61200796 0 0 Z " fill="#3667C6" transform="translate(202.078125,330.6953125)"/>
<path d="M0 0 C0.33 0.99 0.66 1.98 1 3 C1.66 2.67 2.32 2.34 3 2 C3 1.34 3 0.68 3 0 C4.32 0.33 5.64 0.66 7 1 C7 2.65 7 4.3 7 6 C5.35 6.33 3.7 6.66 2 7 C-0.61309167 14.34154326 -2.21864454 21.280793 -4 29 C90.71 29 185.42 29 283 29 C283 29.33 283 29.66 283 30 C187.96 30 92.92 30 -5 30 C-5.33 32.97 -5.66 35.94 -6 39 C-6.44948782 41.32744509 -6.94010034 43.64738458 -7.47460938 45.95678711 C-7.61945267 46.58887085 -7.76429596 47.22095459 -7.91352844 47.87219238 C-8.38530722 49.92509122 -8.86433258 51.97621661 -9.34375 54.02734375 C-9.67660274 55.46691901 -10.00907513 56.90658226 -10.34118652 58.34632874 C-11.03402336 61.34499329 -11.73025995 64.34283996 -12.42919922 67.34008789 C-13.32559103 71.18457411 -14.21513943 75.03060344 -15.10240936 78.87720394 C-15.78664057 81.84157249 -16.47353036 84.80531961 -17.16133118 87.76886177 C-17.49047548 89.18772765 -17.81900031 90.60673739 -18.14689636 92.02589226 C-18.60382013 94.0008504 -19.06451246 95.97493552 -19.52539062 97.94897461 C-19.91724548 99.63367104 -19.91724548 99.63367104 -20.3170166 101.35240173 C-21 104 -21 104 -22 106 C-22.99 106 -23.98 106 -25 106 C-24.39624726 99.60888041 -23.34870805 93.51863028 -21.8828125 87.2734375 C-21.66973953 86.34718567 -21.45666656 85.42093384 -21.23713684 84.46661377 C-20.53826696 81.43485227 -19.83195355 78.40488588 -19.125 75.375 C-18.63454324 73.25967327 -18.14439494 71.144275 -17.65454102 69.02880859 C-16.63108867 64.61294294 -15.60426365 60.19787698 -14.57568359 55.78320312 C-13.2589292 50.12518957 -11.95744054 44.46379383 -10.66143799 38.80099487 C-9.66515973 34.45182204 -8.66269497 30.10409036 -7.65887451 25.75665283 C-7.17856833 23.67153311 -6.70057518 21.5858792 -6.22491455 19.49969482 C-5.5617286 16.59452226 -4.88945291 13.69160038 -4.21484375 10.7890625 C-4.01945511 9.92363831 -3.82406647 9.05821411 -3.62275696 8.16656494 C-2.22822206 2.22822206 -2.22822206 2.22822206 0 0 Z " fill="#6C6C6C" transform="translate(260,481)"/>
<path d="M0 0 C2.43047521 2.23881844 4.04424529 4.52516288 5.69921875 7.37890625 C6.42915039 8.63670898 6.42915039 8.63670898 7.17382812 9.91992188 C7.67333984 10.79197266 8.17285156 11.66402344 8.6875 12.5625 C9.19861328 13.43841797 9.70972656 14.31433594 10.23632812 15.21679688 C14 21.74417974 14 21.74417974 14 24 C5.09 24 -3.82 24 -13 24 C-11.65216951 20.63042377 -10.39221951 17.73146022 -8.65234375 14.609375 C-8.21212891 13.81789063 -7.77191406 13.02640625 -7.31835938 12.2109375 C-6.86267578 11.39882813 -6.40699219 10.58671875 -5.9375 9.75 C-5.47794922 8.92242187 -5.01839844 8.09484375 -4.54492188 7.2421875 C-1.13705937 1.13705937 -1.13705937 1.13705937 0 0 Z " fill="#D73A16" transform="translate(326,413)"/>
<path d="M0 0 C3.50732961 4.0932222 6.09311304 8.43202325 8.6875 13.125 C9.09033203 13.84042969 9.49316406 14.55585938 9.90820312 15.29296875 C11.52933321 18.19851178 12.94382386 20.83147159 14 24 C5.09 24 -3.82 24 -13 24 C-11.65173853 19.95521559 -10.72896847 17.21342318 -8.65234375 13.73046875 C-8.21212891 12.98732422 -7.77191406 12.24417969 -7.31835938 11.47851562 C-6.86267578 10.72248047 -6.40699219 9.96644531 -5.9375 9.1875 C-5.47794922 8.41212891 -5.01839844 7.63675781 -4.54492188 6.83789062 C-1.16502638 1.16502638 -1.16502638 1.16502638 0 0 Z " fill="#D73A14" transform="translate(499,266)"/>
<path d="M0 0 C3.52399046 1.17466349 3.72637986 1.76130019 5.4453125 4.89453125 C6.10080078 6.08079102 6.10080078 6.08079102 6.76953125 7.29101562 C7.21683594 8.12310547 7.66414063 8.95519531 8.125 9.8125 C8.80755859 11.04323242 8.80755859 11.04323242 9.50390625 12.29882812 C11.49893995 15.9484966 12.98130689 18.92522756 14 23 C5.09 23 -3.82 23 -13 23 C-6.25 10.625 -6.25 10.625 -3.125 5.3125 C-2.23167969 3.79076172 -2.23167969 3.79076172 -1.3203125 2.23828125 C-0.88460938 1.49964844 -0.44890625 0.76101563 0 0 Z " fill="#D5401F" transform="translate(373,323)"/>
<path d="M0 0 C3.52771899 1.17590633 3.71219328 1.7490785 5.41015625 4.89453125 C5.84263672 5.68537109 6.27511719 6.47621094 6.72070312 7.29101562 C7.16349609 8.12310547 7.60628906 8.95519531 8.0625 9.8125 C8.50916016 10.63298828 8.95582031 11.45347656 9.41601562 12.29882812 C11.33747731 15.84017679 13.19783208 19.39566415 15 23 C6.09 23 -2.82 23 -12 23 C-10.64292594 18.92877783 -9.71655952 16.19426586 -7.6171875 12.6953125 C-7.17246094 11.94765625 -6.72773438 11.2 -6.26953125 10.4296875 C-5.57923828 9.28886719 -5.57923828 9.28886719 -4.875 8.125 C-4.40707031 7.34125 -3.93914062 6.5575 -3.45703125 5.75 C-2.30981892 3.83017528 -1.1573993 1.91369439 0 0 Z " fill="#D6401D" transform="translate(455,107)"/>
<path d="M0 0 C0.66 0 1.32 0 2 0 C3.42041016 2.00366211 3.42041016 2.00366211 5.0390625 4.77734375 C5.61914062 5.76541016 6.19921875 6.75347656 6.796875 7.77148438 C7.40015625 8.81626953 8.0034375 9.86105469 8.625 10.9375 C9.23601562 11.97841797 9.84703125 13.01933594 10.4765625 14.09179688 C15 21.84121268 15 21.84121268 15 23 C6.09 23 -2.82 23 -12 23 C-10.14134426 17.42403277 -7.9595041 13.11387833 -5 8.125 C-4.54882812 7.34125 -4.09765625 6.5575 -3.6328125 5.75 C-3.19710938 5.01007813 -2.76140625 4.27015625 -2.3125 3.5078125 C-1.91675781 2.83379395 -1.52101563 2.15977539 -1.11328125 1.46533203 C-0.74589844 0.98177246 -0.37851562 0.49821289 0 0 Z " fill="#D8380F" transform="translate(360,366)"/>
<path d="M0 0 C2.44346528 2.24675132 4.0471894 4.54177401 5.69921875 7.4140625 C6.42915039 8.67863281 6.42915039 8.67863281 7.17382812 9.96875 C7.9230957 11.28359375 7.9230957 11.28359375 8.6875 12.625 C9.19861328 13.50929688 9.70972656 14.39359375 10.23632812 15.3046875 C14 21.85719501 14 21.85719501 14 23 C5.09 23 -3.82 23 -13 23 C-11.64876697 19.62191742 -10.46304167 16.88864347 -8.65234375 13.828125 C-8.21212891 13.08175781 -7.77191406 12.33539063 -7.31835938 11.56640625 C-6.86267578 10.80199219 -6.40699219 10.03757812 -5.9375 9.25 C-5.47794922 8.47011719 -5.01839844 7.69023437 -4.54492188 6.88671875 C-1.14457289 1.14457289 -1.14457289 1.14457289 0 0 Z " fill="#D63A12" transform="translate(283,452)"/>
<path d="M0 0 C2.44346528 2.24675132 4.0471894 4.54177401 5.69921875 7.4140625 C6.42915039 8.67863281 6.42915039 8.67863281 7.17382812 9.96875 C7.9230957 11.28359375 7.9230957 11.28359375 8.6875 12.625 C9.19861328 13.50929688 9.70972656 14.39359375 10.23632812 15.3046875 C14 21.85719501 14 21.85719501 14 23 C5.09 23 -3.82 23 -13 23 C-6.25 9.5 -6.25 9.5 -3.125 4.75 C-2.23167969 3.38101562 -2.23167969 3.38101562 -1.3203125 1.984375 C-0.88460938 1.32953125 -0.44890625 0.6746875 0 0 Z " fill="#D73B16" transform="translate(326,331)"/>
<path d="M0 0 C0.66 0 1.32 0 2 0 C1.34844387 7.71145546 -0.26886325 15.04254265 -2.0625 22.5625 C-2.48499023 24.36170898 -2.48499023 24.36170898 -2.91601562 26.19726562 C-3.60600562 29.1326468 -4.30077009 32.06680871 -5 35 C-4.34 35.33 -3.68 35.66 -3 36 C-5 39 -5 39 -7.125 39.6875 C-8.053125 39.8421875 -8.053125 39.8421875 -9 40 C-10.29942748 36.10171757 -9.35356654 33.2427842 -8.41796875 29.375 C-8.24372879 28.63169434 -8.06948883 27.88838867 -7.88996887 27.12255859 C-7.51966085 25.55148364 -7.14534584 23.98134855 -6.76733398 22.41210938 C-6.19026889 20.01151857 -5.62840162 17.60773715 -5.06835938 15.203125 C-4.7066326 13.67686893 -4.34403137 12.1508198 -3.98046875 10.625 C-3.81266403 9.90618652 -3.64485931 9.18737305 -3.4719696 8.44677734 C-2.66819493 5.14391027 -1.90769932 2.86154898 0 0 Z " fill="#B6B6B6" transform="translate(324,203)"/>
<path d="M0 0 C3.3 0 6.6 0 10 0 C9.67 0.99 9.34 1.98 9 3 C9.33 3.66 9.66 4.32 10 5 C9.01 5 8.02 5 7 5 C7 7.31 7 9.62 7 12 C5.35 12 3.7 12 2 12 C1.67 10.02 1.34 8.04 1 6 C0.34 8.64 -0.32 11.28 -1 14 C-2.65 14.33 -4.3 14.66 -6 15 C-5.01 14.01 -4.02 13.02 -3 12 C-4.32 11.67 -5.64 11.34 -7 11 C-7 9.02 -7 7.04 -7 5 C-6.030625 4.54625 -5.06125 4.0925 -4.0625 3.625 C-0.92920418 2.34213779 -0.92920418 2.34213779 0 0 Z " fill="#717271" transform="translate(454,131)"/>
<path d="M0 0 C8.91 0 17.82 0 27 0 C26.67 4.29 26.34 8.58 26 13 C25.34 13 24.68 13 24 13 C24 9.37 24 5.74 24 2 C23.34 2 22.68 2 22 2 C22 5.63 22 9.26 22 13 C21.34 13 20.68 13 20 13 C20 9.37 20 5.74 20 2 C13.4 2 6.8 2 0 2 C0 1.34 0 0.68 0 0 Z " fill="#DBCAC3" transform="translate(270,475)"/>
<path d="M0 0 C4.9976756 1.55529324 9.69529518 3.55557291 14.4609375 5.6953125 C15.25150543 6.04761932 16.04207336 6.39992615 16.8565979 6.76290894 C19.36391291 7.88098184 21.86947248 9.00292802 24.375 10.125 C26.08191651 10.88697582 27.7889466 11.64869729 29.49609375 12.41015625 C33.66538271 14.27049618 37.83310247 16.13431014 42 18 C42 18.66 42 19.32 42 20 C37.00091812 19.32965861 32.74380224 17.25271792 28.19921875 15.18359375 C27.36284378 14.80767593 26.52646881 14.43175812 25.66474915 14.04444885 C23.00345615 12.84696728 20.34546612 11.6423453 17.6875 10.4375 C15.87977073 9.62257325 14.0718303 8.80811472 12.26367188 7.99414062 C7.83998264 6.00151138 3.41924117 4.0024736 -1 2 C-0.67 1.34 -0.34 0.68 0 0 Z " fill="#221F1F" transform="translate(406,100)"/>
<path d="M0 0 C13.33333333 6.66666667 26.66666667 13.33333333 40 20 C39.505 21.485 39.505 21.485 39 23 C35.39209307 21.13576615 31.78496177 19.27004014 28.1784668 17.40307617 C26.95796306 16.77150581 25.73726763 16.14030573 24.51635742 15.50952148 C15.96418518 11.09060527 7.46151296 6.59041712 -1 2 C-0.67 1.34 -0.34 0.68 0 0 Z " fill="#1C1B1C" transform="translate(207,349)"/>
<path d="M0 0 C1.09658936 3.28976808 0.79953138 4.71303767 0 8 C-0.99 8 -1.98 8 -3 8 C-3.33 9.65 -3.66 11.3 -4 13 C2.6 13 9.2 13 16 13 C16 11.68 16 10.36 16 9 C15.34 9 14.68 9 14 9 C14.33 7.68 14.66 6.36 15 5 C15.83878455 6.28813342 16.67086783 7.58063256 17.5 8.875 C17.9640625 9.59429687 18.428125 10.31359375 18.90625 11.0546875 C20 13 20 13 20 15 C11.09 15 2.18 15 -7 15 C-5.60854034 10.82562101 -4.49553763 7.80803904 -2.375 4.125 C-1.92898438 3.34382813 -1.48296875 2.56265625 -1.0234375 1.7578125 C-0.68570312 1.17773438 -0.34796875 0.59765625 0 0 Z " fill="#D16145" transform="translate(493,275)"/>
<path d="M0 0 C5.37305699 -0.44041451 5.37305699 -0.44041451 8 0 C10 2.5 10 2.5 11 5 C11.66 3.35 12.32 1.7 13 0 C13.66 0 14.32 0 15 0 C14.54738642 1.43931117 14.08767021 2.87638999 13.625 4.3125 C13.36976563 5.11300781 13.11453125 5.91351563 12.8515625 6.73828125 C12 9 12 9 10 12 C9.01 12 8.02 12 7 12 C6.67 11.34 6.34 10.68 6 10 C5.01 9.67 4.02 9.34 3 9 C2.87625 7.88625 2.7525 6.7725 2.625 5.625 C2.3534187 1.96896323 2.3534187 1.96896323 0 0 Z " fill="#808080" transform="translate(472,47)"/>
<path d="M0 0 C2.5 0.1875 2.5 0.1875 5 1 C5.66 1.99 6.32 2.98 7 4 C7.33 2.68 7.66 1.36 8 0 C8.99 0.33 9.98 0.66 11 1 C10.67 3.64 10.34 6.28 10 9 C8.68 9 7.36 9 6 9 C4.453125 9.061875 4.453125 9.061875 2.875 9.125 C0 9 0 9 -2 7 C-2.25 4.5 -2.25 4.5 -2 2 C-1.34 1.34 -0.68 0.68 0 0 Z " fill="#969696" transform="translate(501,47)"/>
<path d="M0 0 C-1.32 0.33 -2.64 0.66 -4 1 C-4.04898437 1.556875 -4.09796875 2.11375 -4.1484375 2.6875 C-4.66555577 7.96567265 -5.60462463 12.88362365 -7 18 C-5.68 18.33 -4.36 18.66 -3 19 C-4.32 19 -5.64 19 -7 19 C-6.67 19.99 -6.34 20.98 -6 22 C-6.99 22 -7.98 22 -9 22 C-9.66 21.34 -10.32 20.68 -11 20 C-10.62539828 13.25716897 -9.14034997 6.40056808 -7 0 C-4.3333581 -1.33332095 -2.83319697 -0.67102033 0 0 Z " fill="#B7B7B7" transform="translate(270,462)"/>
<path d="M0 0 C2.97907175 2.62158314 4.72125899 5.7036582 6.6875 9.125 C7.31011719 10.20007813 7.93273437 11.27515625 8.57421875 12.3828125 C10 15 10 15 10 16 C1.09 16 -7.82 16 -17 16 C-16.34 14.02 -15.68 12.04 -15 10 C-14.34 9.67 -13.68 9.34 -13 9 C-13.33 10.65 -13.66 12.3 -14 14 C-7.4 14 -0.8 14 6 14 C6 13.01 6 12.02 6 11 C5.34 10.67 4.68 10.34 4 10 C2.9296875 8.22265625 2.9296875 8.22265625 1.875 6.0625 C1.52179688 5.35222656 1.16859375 4.64195312 0.8046875 3.91015625 C0 2 0 2 0 0 Z " fill="#C04A2C" transform="translate(365,373)"/>
<path d="M0 0 C1.98 0 3.96 0 6 0 C6.33333333 1.66666667 6.66666667 3.33333333 7 5 C7.3403125 6.3303125 7.3403125 6.3303125 7.6875 7.6875 C7.790625 8.450625 7.89375 9.21375 8 10 C7.34 10.66 6.68 11.32 6 12 C4.02 12 2.04 12 0 12 C0 8.04 0 4.08 0 0 Z " fill="#131313" transform="translate(430,44)"/>
<path d="M0 0 C3.63 0 7.26 0 11 0 C11 2.64 11 5.28 11 8 C9.35 8.33 7.7 8.66 6 9 C5.67 9.99 5.34 10.98 5 12 C4.34 12 3.68 12 3 12 C3 8.37 3 4.74 3 1 C2.01 0.67 1.02 0.34 0 0 Z " fill="#424242" transform="translate(512,47)"/>
<path d="M0 0 C0.33 0.66 0.66 1.32 1 2 C1.99 2.33 2.98 2.66 4 3 C3.01 3 2.02 3 1 3 C1 5.31 1 7.62 1 10 C1.99 10.33 2.98 10.66 4 11 C3.154375 10.814375 2.30875 10.62875 1.4375 10.4375 C-2.2773282 9.96470368 -5.32974273 10.33935369 -9 11 C-8 9 -8 9 -5 8 C-6.32 7.34 -7.64 6.68 -9 6 C-8.67 4.68 -8.34 3.36 -8 2 C-5.36 2 -2.72 2 0 2 C0 1.34 0 0.68 0 0 Z " fill="#838383" transform="translate(459,45)"/>
<path d="M0 0 C0.99928333 2.698065 1.03624754 3.88010429 0.1875 6.6875 C-1 9 -1 9 -3 10 C3.93 10 10.86 10 18 10 C18.33 9.34 18.66 8.68 19 8 C19.66 9.32 20.32 10.64 21 12 C12.09 12 3.18 12 -6 12 C-4.24858504 7.6214626 -2.37016034 4.02927258 0 0 Z " fill="#C24423" transform="translate(276,463)"/>
<path d="M0 0 C0.94875 0.04125 1.8975 0.0825 2.875 0.125 C2.92895478 1.74963842 2.96777195 3.37478541 3 5 C3.02320313 5.90492188 3.04640625 6.80984375 3.0703125 7.7421875 C2.875 10.125 2.875 10.125 0.875 12.125 C-1.75 12.25 -1.75 12.25 -4.125 12.125 C-3.125 10.125 -3.125 10.125 -0.125 9.125 C-0.764375 8.980625 -1.40375 8.83625 -2.0625 8.6875 C-4.125 8.125 -4.125 8.125 -5.125 7.125 C-5.3125 4.6875 -5.3125 4.6875 -5.125 2.125 C-3.125 0.125 -3.125 0.125 0 0 Z " fill="#CBCBCB" transform="translate(320.125,551.875)"/>
<path d="M0 0 C1.77978682 5.99616749 -1.20172141 10.63361856 -4.01953125 15.859375 C-4.38433594 16.52453125 -4.74914062 17.1896875 -5.125 17.875 C-5.49753906 18.56335938 -5.87007813 19.25171875 -6.25390625 19.9609375 C-7.16499526 21.64294798 -8.08190315 23.32180436 -9 25 C-9.99 25 -10.98 25 -12 25 C-10.37317535 19.29676416 -7.66802013 14.31986097 -4.875 9.125 C-4.40707031 8.24585938 -3.93914062 7.36671875 -3.45703125 6.4609375 C-2.3087907 4.30505729 -1.15636097 2.15153223 0 0 Z " fill="#141414" transform="translate(310,257)"/>
<path d="M0 0 C1 3 1 3 1 6 C7.27 6 13.54 6 20 6 C20.33 5.34 20.66 4.68 21 4 C21.66 5.65 22.32 7.3 23 9 C14.09 9 5.18 9 -4 9 C-2.74646003 5.86615008 -1.53924548 2.96854486 0 0 Z " fill="#D06A50" transform="translate(317,428)"/>
<path d="M0 0 C0.66 0 1.32 0 2 0 C2 3.96 2 7.92 2 12 C0.02 12 -1.96 12 -4 12 C-6 10 -6 10 -6.25 7.5 C-6 5 -6 5 -4 3 C-3.01 3 -2.02 3 -1 3 C-0.67 2.01 -0.34 1.02 0 0 Z " fill="#D1D1D1" transform="translate(351,549)"/>
<path d="M0 0 C2.31 0 4.62 0 7 0 C7.625 3.375 7.625 3.375 8 7 C7.34 7.66 6.68 8.32 6 9 C5.01 9 4.02 9 3 9 C2.67 9.99 2.34 10.98 2 12 C1.34 12 0.68 12 0 12 C0 8.04 0 4.08 0 0 Z " fill="#9B9B9B" transform="translate(489,47)"/>
<path d="M0 0 C1.65 0 3.3 0 5 0 C4.505 0.845625 4.01 1.69125 3.5 2.5625 C1.77503124 5.8904666 1.77503124 5.8904666 2 9.375 C2 13.9279621 0.75797868 16.82480063 -1 21 C-3 19 -3 19 -3.3125 15.5625 C-3.20306437 10.16035912 -1.5837311 5.12827212 0 0 Z " fill="#B3B3B3" transform="translate(314,242)"/>
<path d="M0 0 C2.125 0.375 2.125 0.375 4 1 C5.25 7.625 5.25 7.625 3 11 C-0.875 10.125 -0.875 10.125 -2 9 C-2.1875 5.5625 -2.1875 5.5625 -2 2 C-1.34 1.34 -0.68 0.68 0 0 Z " fill="#747376" transform="translate(109,521)"/>
<path d="M0 0 C0.33 0.99 0.66 1.98 1 3 C1.66 2.67 2.32 2.34 3 2 C3 1.34 3 0.68 3 0 C4.32 0.33 5.64 0.66 7 1 C7 2.65 7 4.3 7 6 C6.2575 6.0825 5.515 6.165 4.75 6.25 C1.48778646 7.1396946 0.19045122 8.48503749 -2 11 C-2.66 10.67 -3.32 10.34 -4 10 C-3.52449439 8.51965236 -3.04448784 7.04074979 -2.5625 5.5625 C-2.29566406 4.73878906 -2.02882813 3.91507812 -1.75390625 3.06640625 C-1 1 -1 1 0 0 Z " fill="#BDBDBD" transform="translate(260,481)"/>
<path d="M0 0 C4.55555556 0.55555556 4.55555556 0.55555556 6 2 C6.1875 4.4375 6.1875 4.4375 6 7 C5.34 7.66 4.68 8.32 4 9 C-0.55555556 8.44444444 -0.55555556 8.44444444 -2 7 C-2.1875 4.5625 -2.1875 4.5625 -2 2 C-1.34 1.34 -0.68 0.68 0 0 Z " fill="#969696" transform="translate(327,552)"/>
<path d="M0 0 C4.55555556 0.55555556 4.55555556 0.55555556 6 2 C6.1875 4.4375 6.1875 4.4375 6 7 C5.34 7.66 4.68 8.32 4 9 C-0.55555556 8.44444444 -0.55555556 8.44444444 -2 7 C-2.1875 4.5625 -2.1875 4.5625 -2 2 C-1.34 1.34 -0.68 0.68 0 0 Z " fill="#979797" transform="translate(273,552)"/>
<path d="M0 0 C4.55555556 0.55555556 4.55555556 0.55555556 6 2 C6.1875 4.4375 6.1875 4.4375 6 7 C5.34 7.66 4.68 8.32 4 9 C-0.55555556 8.44444444 -0.55555556 8.44444444 -2 7 C-2.1875 4.5625 -2.1875 4.5625 -2 2 C-1.34 1.34 -0.68 0.68 0 0 Z " fill="#9B9B9B" transform="translate(337,552)"/>
<path d="M0 0 C4.03227341 2.23466901 6.53768799 4.61306398 8 9 C7.01 9 6.02 9 5 9 C4.7525 8.38125 4.505 7.7625 4.25 7.125 C2.71902065 4.52233511 1.79852911 4.07379895 -1 3 C-3.94634205 2.68420376 -3.94634205 2.68420376 -7.0625 2.75 C-8.10535156 2.74484375 -9.14820313 2.7396875 -10.22265625 2.734375 C-13.21128985 2.79927423 -13.21128985 2.79927423 -16 5 C-16.33 5.99 -16.66 6.98 -17 8 C-17.99 7.67 -18.98 7.34 -20 7 C-14.9194044 -0.15046788 -8.46221252 -1.41439838 0 0 Z " fill="#436CBA" transform="translate(333,63)"/>
<path d="M0 0 C0.33 0.99 0.66 1.98 1 3 C0.01 3.556875 -0.98 4.11375 -2 4.6875 C-2.99 5.450625 -3.98 6.21375 -5 7 C-5.33374277 9.58416247 -5.33374277 9.58416247 -5 12 C-5.66 12.66 -6.32 13.32 -7 14 C-6.71433121 16.35065178 -6.71433121 16.35065178 -6 19 C-5.66055205 20.99897128 -5.32578384 22.99875639 -5 25 C-7.70072754 22.53411834 -8.80586535 20.67083103 -9.23828125 16.94921875 C-9.42001793 11.41103242 -8.74513006 8.35244845 -5 4 C-2.25 1.625 -2.25 1.625 0 0 Z " fill="#4068B8" transform="translate(147,409)"/>
<path d="M0 0 C0.9590625 0.2784375 0.9590625 0.2784375 1.9375 0.5625 C2.9584375 0.7790625 2.9584375 0.7790625 4 1 C4.33 0.67 4.66 0.34 5 0 C8 -0.125 8 -0.125 11 0 C12 1 12 1 12.0625 4.5625 C12.041875 5.696875 12.02125 6.83125 12 8 C11.34 7.34 10.68 6.68 10 6 C10.33 5.34 10.66 4.68 11 4 C7.88214887 4.64644661 7.88214887 4.64644661 7 7 C4.9375 7.625 4.9375 7.625 3 8 C2.814375 6.576875 2.814375 6.576875 2.625 5.125 C2.28312823 1.91332809 2.28312823 1.91332809 0 0 Z " fill="#727373" transform="translate(428,135)"/>
<path d="M0 0 C1.66611905 -0.042721 3.33382885 -0.04063832 5 0 C6 1 6 1 6.09765625 2.84765625 C6.06510417 4.8984375 6.03255208 6.94921875 6 9 C4.02 9 2.04 9 0 9 C-0.84454356 5.62182575 -1.10844919 3.32534757 0 0 Z " fill="#B2B2B2" transform="translate(293,552)"/>
<path d="M0 0 C1.65 0 3.3 0 5 0 C5 3.3 5 6.6 5 10 C3.35 10.33 1.7 10.66 0 11 C0.99 10.01 1.98 9.02 3 8 C1.68 7.67 0.36 7.34 -1 7 C-1.04254356 5.00045254 -1.04080783 2.99958364 -1 1 C-0.67 0.67 -0.34 0.34 0 0 Z " fill="#B7B7B7" transform="translate(329,480)"/>
<path d="M0 0 C1.65 0 3.3 0 5 0 C5 3.3 5 6.6 5 10 C3.35 10.33 1.7 10.66 0 11 C0.99 10.01 1.98 9.02 3 8 C1.68 7.67 0.36 7.34 -1 7 C-1.04254356 5.00045254 -1.04080783 2.99958364 -1 1 C-0.67 0.67 -0.34 0.34 0 0 Z " fill="#6E6E6E" transform="translate(401,135)"/>
<path d="M0 0 C2.625 0.375 2.625 0.375 5 1 C5.33 2.32 5.66 3.64 6 5 C4.02 5 2.04 5 0 5 C0 5.66 0 6.32 0 7 C1.98 7 3.96 7 6 7 C6 7.66 6 8.32 6 9 C3.125 9.125 3.125 9.125 0 9 C-2 7 -2 7 -2.25 4.5 C-2 2 -2 2 0 0 Z " fill="#393939" transform="translate(552,47)"/>
<path d="M0 0 C1.66611905 -0.042721 3.33382885 -0.04063832 5 0 C6 1 6 1 6.09765625 2.84765625 C6.06510417 4.8984375 6.03255208 6.94921875 6 9 C4.02 9 2.04 9 0 9 C-0.84454356 5.62182575 -1.10844919 3.32534757 0 0 Z " fill="#656565" transform="translate(531,47)"/>
<path d="M0 0 C1.64574566 -0.02688151 3.29161413 -0.04634123 4.9375 -0.0625 C5.85402344 -0.07410156 6.77054687 -0.08570313 7.71484375 -0.09765625 C10 0 10 0 11 1 C11.04092937 3.33297433 11.04241723 5.66705225 11 8 C10.34 7.34 9.68 6.68 9 6 C9.33 5.34 9.66 4.68 10 4 C6.97772938 5.00742354 6.11390767 5.79000562 4 8 C3.67 8 3.34 8 3 8 C2.87625 6.865625 2.7525 5.73125 2.625 4.5625 C2.41875 3.386875 2.2125 2.21125 2 1 C1.34 0.67 0.68 0.34 0 0 Z " fill="#B4B4B4" transform="translate(309,480)"/>
<path d="M0 0 C2.625 0.375 2.625 0.375 5 1 C5.33 2.32 5.66 3.64 6 5 C4.02 5 2.04 5 0 5 C0 5.66 0 6.32 0 7 C1.98 7 3.96 7 6 7 C5.67 7.66 5.34 8.32 5 9 C2.625 9.125 2.625 9.125 0 9 C-2 7 -2 7 -2.25 4.5 C-2 2 -2 2 0 0 Z " fill="#323232" transform="translate(442,47)"/>
<path d="M0 0 C2.97 0 5.94 0 9 0 C8.67 0.99 8.34 1.98 8 3 C8.33 3.66 8.66 4.32 9 5 C8.01 5 7.02 5 6 5 C6 7.31 6 9.62 6 12 C5.34 12 4.68 12 4 12 C3.63743142 10.5437328 3.28520207 9.08488815 2.9375 7.625 C2.64166016 6.40683594 2.64166016 6.40683594 2.33984375 5.1640625 C2 3 2 3 3 1 C2.01 0.67 1.02 0.34 0 0 Z " fill="#B7B6B5" transform="translate(455,131)"/>
<path d="M0 0 C0.66 0 1.32 0 2 0 C3.6875 2.375 3.6875 2.375 5 5 C4.67 5.66 4.34 6.32 4 7 C1.03 6.505 1.03 6.505 -2 6 C-2.18175781 6.63808594 -2.36351562 7.27617187 -2.55078125 7.93359375 C-2.80214844 8.75988281 -3.05351562 9.58617187 -3.3125 10.4375 C-3.55613281 11.26121094 -3.79976563 12.08492188 -4.05078125 12.93359375 C-4.36402344 13.61550781 -4.67726563 14.29742187 -5 15 C-5.99 15.33 -6.98 15.66 -8 16 C-6.46197215 10.15549417 -3.5439162 4.87288478 0 0 Z " fill="#CA5136" transform="translate(360,366)"/>
<path d="M0 0 C3 1 3 1 4.6875 4.0625 C5.120625 5.031875 5.55375 6.00125 6 7 C6.33 4.69 6.66 2.38 7 0 C7.33 0 7.66 0 8 0 C8 3.96 8 7.92 8 12 C5 11 5 11 3.3125 7.9375 C2.879375 6.968125 2.44625 5.99875 2 5 C1.67 7.31 1.34 9.62 1 12 C0.67 12 0.34 12 0 12 C0 8.04 0 4.08 0 0 Z " fill="#8C8C8C" transform="translate(260,549)"/>
<path d="M0 0 C0.33 0.99 0.66 1.98 1 3 C0.67 3.33 0.34 3.66 0 4 C6.6 4.33 13.2 4.66 20 5 C20 3.35 20 1.7 20 0 C22.2477975 2.05233685 23.0022242 3.00667261 24 6 C15.09 6 6.18 6 -3 6 C-2.01 4.02 -1.02 2.04 0 0 Z " fill="#BF4629" transform="translate(316,348)"/>
<path d="M0 0 C1.32 0.66 2.64 1.32 4 2 C3.74476126 3.62752231 3.47025506 5.25203196 3.1875 6.875 C3.03667969 7.77992188 2.88585937 8.68484375 2.73046875 9.6171875 C2 12 2 12 -1 14 C-2.59789351 9.04653013 -1.28306814 4.86717585 0 0 Z " fill="#BBBBBB" transform="translate(242,551)"/>
<path d="M0 0 C3.875 1.75 3.875 1.75 5 4 C7.01669827 5.13350534 7.01669827 5.13350534 9 6 C8.67 6.66 8.34 7.32 8 8 C5.67843403 8.40729228 3.3431213 8.74438677 1 9 C1 8.67 1 8.34 1 8 C-0.65 7.67 -2.3 7.34 -4 7 C-4 6.34 -4 5.68 -4 5 C-2.02 5 -0.04 5 2 5 C1.34 3.35 0.68 1.7 0 0 Z " fill="#EAEAEA" transform="translate(446,47)"/>
<path d="M0 0 C2.625 0.375 2.625 0.375 5 1 C5.33 2.32 5.66 3.64 6 5 C4.02 5 2.04 5 0 5 C0.95865509 7.33075929 0.95865509 7.33075929 4 9 C-0.875 8.125 -0.875 8.125 -2 7 C-2.1875 4.5625 -2.1875 4.5625 -2 2 C-1.34 1.34 -0.68 0.68 0 0 Z " fill="#515151" transform="translate(501,47)"/>
<path d="M0 0 C0.33 0.99 0.66 1.98 1 3 C0.67 3.66 0.34 4.32 0 5 C-0.78278272 11.73561389 -0.78278272 11.73561389 1.1171875 18.05859375 C2.60590128 19.87837993 2.60590128 19.87837993 5 22 C4.01 22 3.02 22 2 22 C-2.39334707 17.21900466 -3.27541182 13.51936115 -3.234375 7.23046875 C-2.92270832 4.26444087 -1.80903616 2.33667171 0 0 Z " fill="#4D70BB" transform="translate(184,112)"/>
<path d="M0 0 C1.25901921 3.77705763 0.54474507 4.64019028 -1.1875 8.125 C-1.61417969 9.01445312 -2.04085937 9.90390625 -2.48046875 10.8203125 C-4 13 -4 13 -6.17578125 13.8046875 C-7.07876953 13.90136719 -7.07876953 13.90136719 -8 14 C-6.58465326 9.16423199 -4.6634683 5.24490261 -2 1 C-1.34 0.67 -0.68 0.34 0 0 Z " fill="#111111" transform="translate(225,418)"/>
<path d="M0 0 C4.25110499 1.54585636 6.61085159 3.15081645 9 7 C7.02 6.34 5.04 5.68 3 5 C3 4.34 3 3.68 3 3 C-3.67522647 1.88522375 -7.99085195 1.73415867 -14 5 C-11.81154295 -1.56537116 -5.83270396 -0.59053856 0 0 Z " fill="#476DBA" transform="translate(158,322)"/>
<path d="M0 0 C1 3 1 3 -0.3984375 5.91796875 C-1.05070312 6.99691406 -1.70296875 8.07585937 -2.375 9.1875 C-3.02210938 10.27417969 -3.66921875 11.36085937 -4.3359375 12.48046875 C-5.15964844 13.72763672 -5.15964844 13.72763672 -6 15 C-6.33 15 -6.66 15 -7 15 C-6.50419272 10.04192718 -5.58960079 6.2828013 -3 2 C-2.01 1.34 -1.02 0.68 0 0 Z " fill="#171717" transform="translate(382,127)"/>
<path d="M0 0 C1.0625 1.875 1.0625 1.875 2 4 C1.67 4.66 1.34 5.32 1 6 C3.97 6 6.94 6 10 6 C10.33 6.66 10.66 7.32 11 8 C10.34 8.66 9.68 9.32 9 10 C7.37433394 9.52309796 5.74948689 9.04340334 4.125 8.5625 C3.22007812 8.29566406 2.31515625 8.02882813 1.3828125 7.75390625 C-1 7 -1 7 -3 6 C-2.625 3.5625 -2.625 3.5625 -2 1 C-1.34 0.67 -0.68 0.34 0 0 Z " fill="#C3BCBC" transform="translate(266,455)"/>
<path d="M0 0 C0.33 0.66 0.66 1.32 1 2 C1.66 2.33 2.32 2.66 3 3 C1.35 6.3 -0.3 9.6 -2 13 C-2.99 12.67 -3.98 12.34 -5 12 C-3.68938409 7.76570244 -2.05643741 3.92592596 0 0 Z " fill="#1E1E1E" transform="translate(159,537)"/>
<path d="M0 0 C0.99 0.99 1.98 1.98 3 3 C2.67 3.66 2.34 4.32 2 5 C1.01 4.67 0.02 4.34 -1 4 C-1.185625 5.4540625 -1.185625 5.4540625 -1.375 6.9375 C-1.58125 7.948125 -1.7875 8.95875 -2 10 C-2.99 10.495 -2.99 10.495 -4 11 C-4.33 11.99 -4.66 12.98 -5 14 C-5.99 14.33 -6.98 14.66 -8 15 C-6.62712658 11.30123909 -4.93644547 8.0485524 -2.875 4.6875 C-2.33617187 3.80449219 -1.79734375 2.92148437 -1.2421875 2.01171875 C-0.83226562 1.34785156 -0.42234375 0.68398438 0 0 Z " fill="#C95030" transform="translate(326,413)"/>
<path d="M0 0 C4.95 2.31 9.9 4.62 15 7 C14.01 7.66 13.02 8.32 12 9 C7.71 6.69 3.42 4.38 -1 2 C-0.67 1.34 -0.34 0.68 0 0 Z " fill="#212638" transform="translate(207,349)"/>
<path d="M0 0 C5.75 4.625 5.75 4.625 8 8 C8.265625 10.59375 8.265625 10.59375 8.25 13.5 C8.25515625 14.4590625 8.2603125 15.418125 8.265625 16.40625 C8 19 8 19 6 22 C6.05220703 20.77023438 6.05220703 20.77023438 6.10546875 19.515625 C6.13253906 18.43796875 6.15960938 17.3603125 6.1875 16.25 C6.23970703 14.64898437 6.23970703 14.64898437 6.29296875 13.015625 C5.9675287 9.66576205 5.308418 8.39225885 3 6 C2.34 5.67 1.68 5.34 1 5 C0.375 2.4375 0.375 2.4375 0 0 Z " fill="#466CB6" transform="translate(239,194)"/>
<path d="M0 0 C1.32 0.33 2.64 0.66 4 1 C2.35 4.3 0.7 7.6 -1 11 C-1.99 10.01 -2.98 9.02 -4 8 C-2.68 5.36 -1.36 2.72 0 0 Z " fill="#1B1B1B" transform="translate(346,190)"/>
<path d="M0 0 C1.65 0.33 3.3 0.66 5 1 C5 3.31 5 5.62 5 8 C3.35 8 1.7 8 0 8 C-0.33 6.68 -0.66 5.36 -1 4 C0.32 3.34 1.64 2.68 3 2 C2.01 1.34 1.02 0.68 0 0 Z " fill="#5B5B5B" transform="translate(387,135)"/>
<path d="M0 0 C2 1 2 1 2.68359375 2.796875 C3.211122 6.47003466 2.00363927 9.45774375 1 13 C0.01 12.34 -0.98 11.68 -2 11 C-1.125 3.375 -1.125 3.375 0 0 Z " fill="#B2B2B2" transform="translate(353,73)"/>
<path d="M0 0 C0.99 0 1.98 0 3 0 C2.4975516 4.39642348 1.02704059 6.7948982 -2 10 C-2.99 10.33 -3.98 10.66 -5 11 C-3.55049545 7.2089881 -1.84827434 3.6125362 0 0 Z " fill="#1D1D1D" transform="translate(441,14)"/>
<path d="M0 0 C5.19644079 1.59890486 10.06612142 3.74138003 15 6 C14.67 6.66 14.34 7.32 14 8 C8.80355921 6.40109514 3.93387858 4.25861997 -1 2 C-0.67 1.34 -0.34 0.68 0 0 Z " fill="#222222" transform="translate(406,100)"/>
<path d="M0 0 C0.99 0 1.98 0 3 0 C2.39301257 4.12751449 0.96189209 7.3321148 -1 11 C-1.99 10.67 -2.98 10.34 -4 10 C-2.8905928 6.51329166 -1.73662334 3.22515763 0 0 Z " fill="#1A1A1A" transform="translate(172,513)"/>
<path d="M0 0 C0.99 0 1.98 0 3 0 C2.39301257 4.12751449 0.96189209 7.3321148 -1 11 C-1.99 10.67 -2.98 10.34 -4 10 C-2.8905928 6.51329166 -1.73662334 3.22515763 0 0 Z " fill="#1A1A1A" transform="translate(200,461)"/>
<path d="M0 0 C2.3125 -0.1875 2.3125 -0.1875 5 0 C5.433125 0.495 5.86625 0.99 6.3125 1.5 C8.73585171 3.65409041 10.50745233 3.29973698 13.6875 3.1875 C15.17830078 3.14689453 15.17830078 3.14689453 16.69921875 3.10546875 C17.45847656 3.07066406 18.21773437 3.03585937 19 3 C18.67 3.66 18.34 4.32 18 5 C6.17525794 5.68881993 6.17525794 5.68881993 2.25 3.0625 C1.5075 2.381875 0.765 1.70125 0 1 C0 0.67 0 0.34 0 0 Z " fill="#3D6AB5" transform="translate(142,348)"/>
<path d="M0 0 C1.67542976 0.28604898 3.34385343 0.61781233 5 1 C5 1.99 5 2.98 5 4 C3.35 4 1.7 4 0 4 C0.33 4.66 0.66 5.32 1 6 C2.32 6 3.64 6 5 6 C5 6.66 5 7.32 5 8 C3.33388095 8.042721 1.66617115 8.04063832 0 8 C-1 7 -1 7 -1.125 4 C-1 1 -1 1 0 0 Z " fill="#505050" transform="translate(409,135)"/>
<path d="M0 0 C0.66 0.33 1.32 0.66 2 1 C-0.475 5.455 -0.475 5.455 -3 10 C-4.32 9.67 -5.64 9.34 -7 9 C-3.375 2.25 -3.375 2.25 0 0 Z " fill="#1E1E1E" transform="translate(407,81)"/>
<path d="M0 0 C0.845625 0.45375 1.69125 0.9075 2.5625 1.375 C0.5625 3.375 0.5625 3.375 -2.5 3.875 C-3.9540625 4.1225 -3.9540625 4.1225 -5.4375 4.375 C-5.7675 5.035 -6.0975 5.695 -6.4375 6.375 C-7.7575 6.045 -9.0775 5.715 -10.4375 5.375 C-4.52065098 -0.82193654 -4.52065098 -0.82193654 0 0 Z " fill="#E8F0F4" transform="translate(214.4375,354.625)"/>
<path d="M0 0 C0.66 0 1.32 0 2 0 C2.05395478 1.62463842 2.09277195 3.24978541 2.125 4.875 C2.14820313 5.77992188 2.17140625 6.68484375 2.1953125 7.6171875 C2 10 2 10 0 12 C-2.625 12.125 -2.625 12.125 -5 12 C-4.67 11.34 -4.34 10.68 -4 10 C-3.01 10 -2.02 10 -1 10 C-1.01160156 9.36191406 -1.02320313 8.72382812 -1.03515625 8.06640625 C-1.04869141 6.82697266 -1.04869141 6.82697266 -1.0625 5.5625 C-1.07410156 4.73878906 -1.08570313 3.91507813 -1.09765625 3.06640625 C-1 1 -1 1 0 0 Z " fill="#9A9A9A" transform="translate(321,552)"/>
<path d="M0 0 C0.66 0 1.32 0 2 0 C2 3.96 2 7.92 2 12 C0.02 12 -1.96 12 -4 12 C-3.01 11.34 -2.02 10.68 -1 10 C-0.41810734 7.57478506 -0.41810734 7.57478506 -0.3125 4.875 C-0.21388672 3.50988281 -0.21388672 3.50988281 -0.11328125 2.1171875 C-0.07589844 1.41851563 -0.03851563 0.71984375 0 0 Z " fill="#9D9D9D" transform="translate(351,549)"/>
<path d="M0 0 C0.66 0.99 1.32 1.98 2 3 C1.125 6.6875 1.125 6.6875 0 10 C-0.66 10 -1.32 10 -2 10 C-3.01136941 7.26930259 -3.04557718 6.13998707 -2.125 3.3125 C-1 1 -1 1 0 0 Z " fill="#BCBCBC" transform="translate(252,515)"/>
<path d="M0 0 C2.40575607 2.18517099 3.79535581 4.25919671 5.1875 7.1875 C5.53167969 7.90292969 5.87585938 8.61835938 6.23046875 9.35546875 C6.48441406 9.89816406 6.73835938 10.44085938 7 11 C6.01 11.495 6.01 11.495 5 12 C4.67 11.01 4.34 10.02 4 9 C3.34 8.67 2.68 8.34 2 8 C1.375 5.4375 1.375 5.4375 1 3 C0.34 3 -0.32 3 -1 3 C-1 3.99 -1 4.98 -1 6 C-1.66 6 -2.32 6 -3 6 C-1.125 1.125 -1.125 1.125 0 0 Z " fill="#CA5032" transform="translate(283,452)"/>
<path d="M0 0 C0.99 0.33 1.98 0.66 3 1 C1.85865673 3.00256574 0.71181367 5.00199797 -0.4375 7 C-1.39462891 8.670625 -1.39462891 8.670625 -2.37109375 10.375 C-2.90863281 11.24125 -3.44617188 12.1075 -4 13 C-4.33 13 -4.66 13 -5 13 C-5 11.35 -5 9.7 -5 8 C-4.01 7.67 -3.02 7.34 -2 7 C-1.855625 6.21625 -1.71125 5.4325 -1.5625 4.625 C-1 2 -1 2 0 0 Z " fill="#FDE7DB" transform="translate(369,325)"/>
<path d="M0 0 C0.33 0.66 0.66 1.32 1 2 C1.66 2.33 2.32 2.66 3 3 C1.68 5.64 0.36 8.28 -1 11 C-1.99 10.67 -2.98 10.34 -4 10 C-2.8905928 6.51329166 -1.73662334 3.22515763 0 0 Z " fill="#1E1E1E" transform="translate(276,320)"/>
<path d="M0 0 C3.3 1.65 6.6 3.3 10 5 C10 5.99 10 6.98 10 8 C9.67 7.67 9.34 7.34 9 7 C7.48071962 6.92820036 5.95832518 6.91607993 4.4375 6.9375 C3.19806641 6.95103516 3.19806641 6.95103516 1.93359375 6.96484375 C0.97646484 6.98224609 0.97646484 6.98224609 0 7 C0 6.34 0 5.68 0 5 C1.32 4.67 2.64 4.34 4 4 C2.68 3.34 1.36 2.68 0 2 C0 1.34 0 0.68 0 0 Z " fill="#565657" transform="translate(33,290)"/>
<path d="M0 0 C1.20808894 3.95841909 0.58663053 6.15868398 -1 10 C-3 12 -3 12 -6 13 C-4.31326082 8.50202887 -2.18326108 4.27113698 0 0 Z " fill="#282828" transform="translate(310,257)"/>
<path d="M0 0 C5.85272256 0.45020943 10.08220119 3.03839227 15 6 C12 7 12 7 9.08203125 5.78515625 C7.46361328 4.93244141 7.46361328 4.93244141 5.8125 4.0625 C4.72582031 3.49660156 3.63914062 2.93070312 2.51953125 2.34765625 C1.68808594 1.90292969 0.85664063 1.45820312 0 1 C0 0.67 0 0.34 0 0 Z " fill="#191919" transform="translate(420,107)"/>
<path d="M0 0 C2.31 0.33 4.62 0.66 7 1 C6.67 3.31 6.34 5.62 6 8 C5.67 8 5.34 8 5 8 C4.67 6.02 4.34 4.04 4 2 C3.67 2 3.34 2 3 2 C2.67 3.98 2.34 5.96 2 8 C1.34 8 0.68 8 0 8 C0 5.36 0 2.72 0 0 Z " fill="#9E9E9E" transform="translate(269,480)"/>
<path d="M0 0 C0.79921875 0.01804688 1.5984375 0.03609375 2.421875 0.0546875 C3.02515625 0.07789063 3.6284375 0.10109375 4.25 0.125 C4.25 0.455 4.25 0.785 4.25 1.125 C0.62 1.785 -3.01 2.445 -6.75 3.125 C-7.08 4.115 -7.41 5.105 -7.75 6.125 C-9.4 6.125 -11.05 6.125 -12.75 6.125 C-8.76669417 1.85717233 -5.9284756 -0.17436693 0 0 Z " fill="#5B80C7" transform="translate(231.75,191.875)"/>
<path d="M0 0 C2.31 0.33 4.62 0.66 7 1 C6.67 3.31 6.34 5.62 6 8 C5.67 8 5.34 8 5 8 C4.67 6.02 4.34 4.04 4 2 C3.67 2 3.34 2 3 2 C2.67 3.98 2.34 5.96 2 8 C1.34 8 0.68 8 0 8 C0 5.36 0 2.72 0 0 Z " fill="#404040" transform="translate(421,135)"/>
<path d="M0 0 C3.95181381 1.06394987 6.77754099 2.72207542 10.25 4.875 C9.92 5.865 9.59 6.855 9.25 7.875 C8.75371094 7.52566406 8.25742188 7.17632812 7.74609375 6.81640625 C3.14415395 3.73389249 -0.21239061 2.22110059 -5.75 1.875 C-2.75 -0.125 -2.75 -0.125 0 0 Z " fill="#E3EFFC" transform="translate(200.75,104.125)"/>
<path d="M0 0 C0.66 0.99 1.32 1.98 2 3 C1.5390625 5.04296875 1.5390625 5.04296875 0.625 7.1875 C0.32851563 7.90292969 0.03203125 8.61835938 -0.2734375 9.35546875 C-0.51320313 9.89816406 -0.75296875 10.44085938 -1 11 C-3 9 -3 9 -3.125 5.375 C-3.08375 4.26125 -3.0425 3.1475 -3 2 C-2.01 2 -1.02 2 0 2 C0 1.34 0 0.68 0 0 Z " fill="#9F9F9F" transform="translate(314,252)"/>
<path d="M0 0 C1 3 1 3 0.00390625 5.26171875 C-0.47175781 6.06222656 -0.94742187 6.86273438 -1.4375 7.6875 C-1.91058594 8.49574219 -2.38367188 9.30398437 -2.87109375 10.13671875 C-3.24363281 10.75160156 -3.61617188 11.36648437 -4 12 C-4.33 12 -4.66 12 -5 12 C-5.35338623 9.03155565 -5.5417682 6.84401782 -3.88671875 4.265625 C-2.64496832 2.79651181 -1.32662082 1.39295186 0 0 Z " fill="#1C1C1C" transform="translate(320,242)"/>
<path d="M0 0 C0.99 0.33 1.98 0.66 3 1 C1.92598892 3.91517292 1.22189824 5.77810176 -1 8 C-1.99 8.33 -2.98 8.66 -4 9 C-2.94124926 5.59687262 -1.99097846 2.98646769 0 0 Z " fill="#1E1E1E" transform="translate(384,120)"/>
<path d="M0 0 C1 3 1 3 0.22265625 4.82421875 C-0.8515625 6.54947917 -1.92578125 8.27473958 -3 10 C-3.99 10 -4.98 10 -6 10 C-4.79157144 5.56909529 -3.48331435 3.01887244 0 0 Z " fill="#0F0F0F" transform="translate(416,64)"/>
<path d="M0 0 C1 3 1 3 0.22265625 4.82421875 C-0.8515625 6.54947917 -1.92578125 8.27473958 -3 10 C-3.99 10 -4.98 10 -6 10 C-4.79157144 5.56909529 -3.48331435 3.01887244 0 0 Z " fill="#0F0F0F" transform="translate(430,38)"/>
<path d="M0 0 C1 3 1 3 0.22265625 4.82421875 C-0.8515625 6.54947917 -1.92578125 8.27473958 -3 10 C-3.99 10 -4.98 10 -6 10 C-5.1875 7.0625 -5.1875 7.0625 -4 4 C-3.01 3.67 -2.02 3.34 -1 3 C-0.67 2.01 -0.34 1.02 0 0 Z " fill="#111111" transform="translate(235,400)"/>
<path d="M0 0 C0.66 1.32 1.32 2.64 2 4 C0.625 7.75 0.625 7.75 -1 11 C-1.99 10.01 -2.98 9.02 -4 8 C-2.68 5.36 -1.36 2.72 0 0 Z " fill="#202020" transform="translate(374,138)"/>
<path d="M0 0 C0.33 0.66 0.66 1.32 1 2 C1.99 2.33 2.98 2.66 4 3 C3.01 3 2.02 3 1 3 C1 5.31 1 7.62 1 10 C1.99 10.33 2.98 10.66 4 11 C2.35 10.67 0.7 10.34 -1 10 C-1.33 7.36 -1.66 4.72 -2 2 C-1.34 2 -0.68 2 0 2 C0 1.34 0 0.68 0 0 Z " fill="#999999" transform="translate(282,550)"/>
<path d="M0 0 C4.97778804 1.04795538 7.05966912 4.13556514 10 8 C9.01 8.33 8.02 8.66 7 9 C6.835 8.401875 6.67 7.80375 6.5 7.1875 C4.18723796 3.81472202 0.80108663 3.1668452 -3 2 C-2.01 1.34 -1.02 0.68 0 0 Z " fill="#4B75BD" transform="translate(331,63)"/>
<path d="M0 0 C0.99 0 1.98 0 3 0 C3.33 1.65 3.66 3.3 4 5 C2.35 5.33 0.7 5.66 -1 6 C-1.042721 4.33388095 -1.04063832 2.66617115 -1 1 C-0.67 0.67 -0.34 0.34 0 0 Z " fill="#E6E6E6" transform="translate(518,48)"/>
<path d="M0 0 C0.99 0.33 1.98 0.66 3 1 C3.14285714 8.42857143 3.14285714 8.42857143 2 12 C1.34 12 0.68 12 0 12 C0 8.04 0 4.08 0 0 Z " fill="#3E3E3E" transform="translate(489,47)"/>
<path d="M0 0 C2.31 0.33 4.62 0.66 7 1 C6.67 3.31 6.34 5.62 6 8 C5.67 8 5.34 8 5 8 C4.67 6.02 4.34 4.04 4 2 C2.04783565 3.95216435 1.15173355 5.53199953 0 8 C0 5.36 0 2.72 0 0 Z " fill="#989898" transform="translate(302,480)"/>
<path d="M0 0 C1.42944945 2.35438733 2.08661261 3.48032433 1.625 6.25 C1.41875 6.8275 1.2125 7.405 1 8 C-0.32 7.67 -1.64 7.34 -3 7 C-2.625 4.0625 -2.625 4.0625 -2 1 C-1.34 0.67 -0.68 0.34 0 0 Z " fill="#BDBDBD" transform="translate(276,412)"/>
<path d="M0 0 C1.5 1.375 1.5 1.375 3 3 C3 3.66 3 4.32 3 5 C1.68 5 0.36 5 -1 5 C-1.103125 5.639375 -1.20625 6.27875 -1.3125 6.9375 C-1.539375 7.618125 -1.76625 8.29875 -2 9 C-2.99 9.33 -3.98 9.66 -5 10 C-3.84414715 6.08788267 -2.64465038 3.1254959 0 0 Z " fill="#C45031" transform="translate(326,331)"/>
<path d="M0 0 C2 3 2 3 1.625 5.6875 C1.41875 6.450625 1.2125 7.21375 1 8 C-0.32 7.67 -1.64 7.34 -3 7 C-2.625 4.0625 -2.625 4.0625 -2 1 C-1.34 0.67 -0.68 0.34 0 0 Z " fill="#BDBDBD" transform="translate(339,140)"/>
<path d="M0 0 C1.67542976 0.28604898 3.34385343 0.61781233 5 1 C5.33 1.99 5.66 2.98 6 4 C3.69 4 1.38 4 -1 4 C-1 1 -1 1 0 0 Z " fill="#7D7D7D" transform="translate(552,47)"/>
<path d="M0 0 C0.66 0 1.32 0 2 0 C3.16063604 4.25566547 2.76173392 7.6835078 2 12 C1.34 12 0.68 12 0 12 C0 8.04 0 4.08 0 0 Z " fill="#424242" transform="translate(469,44)"/>
<path d="M0 0 C0.99 0.33 1.98 0.66 3 1 C3 2.65 3 4.3 3 6 C1.68 6 0.36 6 -1 6 C-1.042721 4.33388095 -1.04063832 2.66617115 -1 1 C-0.67 0.67 -0.34 0.34 0 0 Z " fill="#F4F4F4" transform="translate(328,553)"/>
<path d="M0 0 C0.99 0.33 1.98 0.66 3 1 C3 2.65 3 4.3 3 6 C1.68 6 0.36 6 -1 6 C-1.042721 4.33388095 -1.04063832 2.66617115 -1 1 C-0.67 0.67 -0.34 0.34 0 0 Z " fill="#F4F4F4" transform="translate(274,553)"/>
<path d="M0 0 C0.99 0.33 1.98 0.66 3 1 C3 3.31 3 5.62 3 8 C2.01 8 1.02 8 0 8 C0 5.36 0 2.72 0 0 Z " fill="#EFF6F5" transform="translate(109,522)"/>
<path d="M0 0 C0.66 0 1.32 0 2 0 C3.09658936 3.28976808 2.79953138 4.71303767 2 8 C0.68 7.67 -0.64 7.34 -2 7 C-1.34 4.69 -0.68 2.38 0 0 Z " fill="#BDBDBD" transform="translate(301,300)"/>
<path d="M0 0 C1.67542976 0.28604898 3.34385343 0.61781233 5 1 C5 1.99 5 2.98 5 4 C3.02 4 1.04 4 -1 4 C-1 1 -1 1 0 0 Z " fill="#828282" transform="translate(442,47)"/>
<path d="M0 0 C0.66 0 1.32 0 2 0 C2 0.99 2 1.98 2 3 C3.32 3.33 4.64 3.66 6 4 C4.68 4 3.36 4 2 4 C2.33 4.99 2.66 5.98 3 7 C2.01 7 1.02 7 0 7 C-0.66 5.68 -1.32 4.36 -2 3 C-1.34 2.01 -0.68 1.02 0 0 Z " fill="#A0A0A0" transform="translate(261,477)"/>
<path d="M0 0 C0.66 0 1.32 0 2 0 C3.6875 2.375 3.6875 2.375 5 5 C4.67 5.66 4.34 6.32 4 7 C2.35 6.67 0.7 6.34 -1 6 C-0.67 4.02 -0.34 2.04 0 0 Z " fill="#CE4429" transform="translate(360,366)"/>
<path d="M0 0 C0.33 0.66 0.66 1.32 1 2 C1.66 2.33 2.32 2.66 3 3 C2.01 4.98 1.02 6.96 0 9 C-0.99 8.67 -1.98 8.34 -3 8 C-1.125 2.25 -1.125 2.25 0 0 Z " fill="#1F1F1F" transform="translate(290,294)"/>
<path d="M0 0 C0.99 0.33 1.98 0.66 3 1 C2.67 3.31 2.34 5.62 2 8 C1.01 7.67 0.02 7.34 -1 7 C-0.67 4.69 -0.34 2.38 0 0 Z " fill="#ADADAD" transform="translate(330,173)"/>
<path d="M0 0 C2.97 0.495 2.97 0.495 6 1 C6.33 2.32 6.66 3.64 7 5 C6.01 5.495 6.01 5.495 5 6 C4.01 5.01 3.02 4.02 2 3 C1.67 3.99 1.34 4.98 1 6 C-0.0625 4.125 -0.0625 4.125 -1 2 C-0.67 1.34 -0.34 0.68 0 0 Z " fill="#FAE7DC" transform="translate(453,104)"/>
<path d="M0 0 C2.475 0.495 2.475 0.495 5 1 C4.67 2.32 4.34 3.64 4 5 C2.68 5 1.36 5 0 5 C0 3.35 0 1.7 0 0 Z " fill="#D9D9D9" transform="translate(431,50)"/>
<path d="M0 0 C1.32 0 2.64 0 4 0 C4 1.65 4 3.3 4 5 C2.68 5 1.36 5 0 5 C0 3.35 0 1.7 0 0 Z " fill="#F7F7F7" transform="translate(337,554)"/>
<path d="M0 0 C1 3 1 3 -0.3125 5.6875 C-0.869375 6.450625 -1.42625 7.21375 -2 8 C-2.66 8 -3.32 8 -4 8 C-3.50168276 4.31245243 -2.89932357 2.39509338 0 0 Z " fill="#0D0D0D" transform="translate(155,548)"/>
<path d="M0 0 C0.99 0.66 1.98 1.32 3 2 C-2.94 2.495 -2.94 2.495 -9 3 C-9 2.34 -9 1.68 -9 1 C-5.98131566 -0.50934217 -3.32702771 -0.17510672 0 0 Z " fill="#5E81C8" transform="translate(200,330)"/>
<path d="M0 0 C0.66 0.66 1.32 1.32 2 2 C1.625 5.625 1.625 5.625 1 9 C0.67 8.34 0.34 7.68 0 7 C-0.66 7 -1.32 7 -2 7 C-1.125 1.125 -1.125 1.125 0 0 Z " fill="#B0B0B0" transform="translate(300,306)"/>
<path d="M0 0 C0.66 0 1.32 0 2 0 C3.04059132 3.12177395 3.32284898 4.07083439 2 7 C-0.5625 8.25 -0.5625 8.25 -3 9 C-2.01 6.03 -1.02 3.06 0 0 Z " fill="#B2B2B2" transform="translate(310,261)"/>
<path d="M0 0 C0.66 0 1.32 0 2 0 C2 1.65 2 3.3 2 5 C1.01 5.33 0.02 5.66 -1 6 C-1 6.66 -1 7.32 -1 8 C-1.66 8 -2.32 8 -3 8 C-1.125 2.25 -1.125 2.25 0 0 Z " fill="#BEBEBE" transform="translate(324,203)"/>
<path d="M0 0 C0.99 0.33 1.98 0.66 3 1 C2.67 3.31 2.34 5.62 2 8 C1.01 7.67 0.02 7.34 -1 7 C-0.67 4.69 -0.34 2.38 0 0 Z " fill="#B0B0B0" transform="translate(339,134)"/>
<path d="M0 0 C0.625 1.8125 0.625 1.8125 1 4 C0.01 5.485 0.01 5.485 -1 7 C-1.66 7 -2.32 7 -3 7 C-3.33 8.32 -3.66 9.64 -4 11 C-5 8 -5 8 -4.00390625 5.95703125 C-3.52824219 5.24933594 -3.05257813 4.54164062 -2.5625 3.8125 C-2.08941406 3.09707031 -1.61632812 2.38164063 -1.12890625 1.64453125 C-0.75636719 1.10183594 -0.38382812 0.55914062 0 0 Z " fill="#CC502C" transform="translate(454,109)"/>
<path d="M0 0 C1 3 1 3 -0.4375 6.1875 C-1.2109375 7.5796875 -1.2109375 7.5796875 -2 9 C-2.66 9 -3.32 9 -4 9 C-3.71848913 7.68528432 -3.42446661 6.37324233 -3.125 5.0625 C-2.96257812 4.33160156 -2.80015625 3.60070312 -2.6328125 2.84765625 C-2 1 -2 1 0 0 Z " fill="#0C0C0C" transform="translate(169,522)"/>
<path d="M0 0 C0.99 0.33 1.98 0.66 3 1 C4.1875 4.0625 4.1875 4.0625 5 7 C4.01 6.67 3.02 6.34 2 6 C1.67 5.01 1.34 4.02 1 3 C0.67 3.66 0.34 4.32 0 5 C-0.66 5 -1.32 5 -2 5 C-1.34 3.35 -0.68 1.7 0 0 Z " fill="#C55130" transform="translate(373,323)"/>
<path d="M0 0 C1.32 1.65 2.64 3.3 4 5 C2 5 0 5 -2 5 C-2 5.66 -2 6.32 -2 7 C-2.66 6.67 -3.32 6.34 -4 6 C-2.68 4.02 -1.36 2.04 0 0 Z " fill="#C84F33" transform="translate(499,266)"/>
<path d="M0 0 C1.65 0 3.3 0 5 0 C4.34 0.66 3.68 1.32 3 2 C2.60235737 3.98821313 2.26224651 5.98944339 2 8 C1.34 8 0.68 8 0 8 C0 5.36 0 2.72 0 0 Z " fill="#ACACAC" transform="translate(323,480)"/>
<path d="M0 0 C1.98 0.495 1.98 0.495 4 1 C4 2.65 4 4.3 4 6 C2.35 5.67 0.7 5.34 -1 5 C-0.67 3.35 -0.34 1.7 0 0 Z " fill="#D3D3D3" transform="translate(263,481)"/>
<path d="M0 0 C2.97 0.495 2.97 0.495 6 1 C4.68 2.32 3.36 3.64 2 5 C1.01 4.67 0.02 4.34 -1 4 C-0.67 2.68 -0.34 1.36 0 0 Z " fill="#4871C6" transform="translate(159,434)"/>
<path d="M0 0 C1.485 0.99 1.485 0.99 3 2 C2.67 3.98 2.34 5.96 2 8 C1.01 7.67 0.02 7.34 -1 7 C-0.67 4.69 -0.34 2.38 0 0 Z " fill="#AEAEAE" transform="translate(279,393)"/>
<path d="M0 0 C0.66 0.33 1.32 0.66 2 1 C0.515 4.465 0.515 4.465 -1 8 C-1.66 8 -2.32 8 -3 8 C-2.45276317 4.62537285 -1.9451 2.91765 0 0 Z " fill="#080808" transform="translate(280,314)"/>
<path d="M0 0 C0.66 0 1.32 0 2 0 C2.625 2.8125 2.625 2.8125 3 6 C2.01 7.485 2.01 7.485 1 9 C0.34 8.34 -0.32 7.68 -1 7 C-0.625 3.375 -0.625 3.375 0 0 Z " fill="#AFAFAF" transform="translate(304,284)"/>
<path d="M0 0 C1.05283182 3.15849546 1.29904469 4.030755 0 7 C-2.5625 8.75 -2.5625 8.75 -5 10 C-3.66511872 6.40608886 -2.03977277 3.24509304 0 0 Z " fill="#EFEFEF" transform="translate(306,272)"/>
<path d="M0 0 C0.66 0.33 1.32 0.66 2 1 C1.1875 3.9375 1.1875 3.9375 0 7 C-0.99 7.33 -1.98 7.66 -3 8 C-2.45276317 4.62537285 -1.9451 2.91765 0 0 Z " fill="#0E0E0E" transform="translate(370,147)"/>
<path d="M0 0 C0.99 0.33 1.98 0.66 3 1 C2.67 2.65 2.34 4.3 2 6 C1.01 5.67 0.02 5.34 -1 5 C-0.67 3.35 -0.34 1.7 0 0 Z " fill="#E8E8E8" transform="translate(449,136)"/>
<path d="M0 0 C0.66 1.32 1.32 2.64 2 4 C0.625 6 0.625 6 -1 8 C-1.66 8 -2.32 8 -3 8 C-1.125 1.125 -1.125 1.125 0 0 Z " fill="#C0C0C0" transform="translate(348,100)"/>
<path d="M0 0 C0.66 0 1.32 0 2 0 C2.6875 2.3125 2.6875 2.3125 3 5 C1.6875 6.8125 1.6875 6.8125 0 8 C-0.66 8 -1.32 8 -2 8 C-2 7.34 -2 6.68 -2 6 C-1.34 6 -0.68 6 0 6 C0 4.02 0 2.04 0 0 Z " fill="#F5F0DE" transform="translate(323,586)"/>
<path d="M0 0 C0.33 0.99 0.66 1.98 1 3 C-1.64 4.65 -4.28 6.3 -7 8 C-4.9957983 3.9915966 -3.50944037 2.58590343 0 0 Z " fill="#4A70BE" transform="translate(147,409)"/>
<path d="M0 0 C0.66 0 1.32 0 2 0 C2.625 2.3125 2.625 2.3125 3 5 C2.01 6.485 2.01 6.485 1 8 C0.34 7.34 -0.32 6.68 -1 6 C-0.625 2.875 -0.625 2.875 0 0 Z " fill="#AFAFAF" transform="translate(295,324)"/>
<path d="M0 0 C0.66 0 1.32 0 2 0 C1.125 4.75 1.125 4.75 0 7 C-0.99 6.67 -1.98 6.34 -3 6 C-2.01 4.02 -1.02 2.04 0 0 Z " fill="#0A0A0A" transform="translate(363,160)"/>
<path d="M0 0 C1.1875 1.6875 1.1875 1.6875 2 4 C0.6875 6.75 0.6875 6.75 -1 9 C-1.33 9 -1.66 9 -2 9 C-1.125 2.25 -1.125 2.25 0 0 Z " fill="#0B0B0B" transform="translate(377,133)"/>
<path d="M0 0 C1.125 1.75 1.125 1.75 2 4 C1.125 6.25 1.125 6.25 0 8 C-0.99 7.67 -1.98 7.34 -3 7 C-2.01 4.69 -1.02 2.38 0 0 Z " fill="#BFBFBF" transform="translate(358,56)"/>
<path d="M0 0 C0.99 0.33 1.98 0.66 3 1 C2.67 3.64 2.34 6.28 2 9 C1.34 9 0.68 9 0 9 C0 6.03 0 3.06 0 0 Z " fill="#434343" transform="translate(540,47)"/>
<path d="M0 0 C0.33 0.66 0.66 1.32 1 2 C1.99 2.33 2.98 2.66 4 3 C3.01 3 2.02 3 1 3 C1 5.31 1 7.62 1 10 C1.99 10.33 2.98 10.66 4 11 C2.68 11 1.36 11 0 11 C0 8.36 0 5.72 0 3 C-0.66 2.67 -1.32 2.34 -2 2 C-1.34 2 -0.68 2 0 2 C0 1.34 0 0.68 0 0 Z " fill="#151515" transform="translate(459,45)"/>
<path d="M0 0 C0.33 0.66 0.66 1.32 1 2 C1.66 2 2.32 2 3 2 C2.67 3.98 2.34 5.96 2 8 C1.67 7.34 1.34 6.68 1 6 C0.34 6 -0.32 6 -1 6 C-0.67 4.02 -0.34 2.04 0 0 Z " fill="#AEAEAE" transform="translate(237,575)"/>
<path d="M0 0 C1.0326802 2.78823655 1.04509293 3.8677274 0.0625 6.75 C-0.288125 7.4925 -0.63875 8.235 -1 9 C-1.99 8.34 -2.98 7.68 -4 7 C-2.68 4.69 -1.36 2.38 0 0 Z " fill="#C84F2C" transform="translate(276,463)"/>
<path d="M0 0 C0.99 0.33 1.98 0.66 3 1 C1.68 3.31 0.36 5.62 -1 8 C-1.66 8 -2.32 8 -3 8 C-3 7.34 -3 6.68 -3 6 C-2.34 6 -1.68 6 -1 6 C-0.67 4.02 -0.34 2.04 0 0 Z " fill="#FEEBDC" transform="translate(352,375)"/>
<path d="M0 0 C0.66 0.33 1.32 0.66 2 1 C1.34 3.31 0.68 5.62 0 8 C-0.33 7.34 -0.66 6.68 -1 6 C-1.66 5.67 -2.32 5.34 -3 5 C-2.01 3.35 -1.02 1.7 0 0 Z " fill="#BEBEBE" transform="translate(288,361)"/>
<path d="M0 0 C0.33 0.66 0.66 1.32 1 2 C-0.3125 4.625 -0.3125 4.625 -2 7 C-2.66 7 -3.32 7 -4 7 C-3.6875 4.625 -3.6875 4.625 -3 2 C-2.01 1.34 -1.02 0.68 0 0 Z " fill="#0E0E0E" transform="translate(267,341)"/>
<path d="M0 0 C0.33 0.66 0.66 1.32 1 2 C-0.3125 4.625 -0.3125 4.625 -2 7 C-2.66 7 -3.32 7 -4 7 C-3.6875 4.625 -3.6875 4.625 -3 2 C-2.01 1.34 -1.02 0.68 0 0 Z " fill="#0E0E0E" transform="translate(295,289)"/>
<path d="M0 0 C-0.99 1.485 -0.99 1.485 -2 3 C-5.3 2.34 -8.6 1.68 -12 1 C-12 0.67 -12 0.34 -12 0 C-10.37585622 -0.19477739 -8.75063577 -0.38059458 -7.125 -0.5625 C-6.22007812 -0.66691406 -5.31515625 -0.77132812 -4.3828125 -0.87890625 C-2 -1 -2 -1 0 0 Z " fill="#C4D8F4" transform="translate(205,137)"/>
<path d="M0 0 C2.475 0.495 2.475 0.495 5 1 C4.67 1.99 4.34 2.98 4 4 C2.68 4 1.36 4 0 4 C0 2.68 0 1.36 0 0 Z " fill="#D3D3D3" transform="translate(431,45)"/>
<path d="M0 0 C0.33 0.66 0.66 1.32 1 2 C1.66 2 2.32 2 3 2 C2.67 3.98 2.34 5.96 2 8 C1.01 7.34 0.02 6.68 -1 6 C-0.67 4.02 -0.34 2.04 0 0 Z " fill="#AAAAAA" transform="translate(252,510)"/>
<path d="M0 0 C1.32 0.33 2.64 0.66 4 1 C4.33 3.64 4.66 6.28 5 9 C2.67527795 6.14693203 1.2491742 3.45925163 0 0 Z " fill="#FCE7D6" transform="translate(383,337)"/>
<path d="M0 0 C-2 3 -2 3 -4.125 3.6875 C-4.74375 3.790625 -5.3625 3.89375 -6 4 C-6 2.68 -6 1.36 -6 0 C-2.25 -1.125 -2.25 -1.125 0 0 Z " fill="#CCCCCC" transform="translate(321,239)"/>
<path d="M0 0 C2.72426311 2.35277269 3.8141763 4.62496331 5 8 C3.35 8 1.7 8 0 8 C0.66 7.67 1.32 7.34 2 7 C1.34 4.69 0.68 2.38 0 0 Z " fill="#C34A29" transform="translate(464,121)"/>
<path d="M0 0 C2.875 0.1875 2.875 0.1875 6 1 C7.375 3.5625 7.375 3.5625 8 6 C4.08597051 4.73058503 2.20927127 3.48832306 0 0 Z " fill="#4B73BD" transform="translate(314,88)"/>
</svg>
